<?xml version="1.0" encoding="utf-8"?>
<!-- Generator: Adobe Illustrator 21.0.0, SVG Export Plug-In . SVG Version: 6.00 Build 0)  -->
<svg version="1.1" xmlns="http://www.w3.org/2000/svg" xmlns:xlink="http://www.w3.org/1999/xlink" x="0px" y="0px"
	 viewBox="0 0 54.3 44.9" style="enable-background:new 0 0 54.3 44.9;" xml:space="preserve">
<style type="text/css">
	.st0{fill:#ECF3FF;}
	.st1{opacity:0.5;}
	.st2{fill:#84B4FE;}
	.st3{fill:#C1DDF7;}
	.st4{fill:#71ADDB;}
	.st5{fill:#BED1F1;}
	.st6{fill:none;stroke:#ECF3FF;stroke-linecap:round;stroke-linejoin:round;stroke-miterlimit:10;}
	.st7{opacity:0.75;fill:#BED1F1;}
	.st8{fill:#C8DBFB;}
	.st9{opacity:0.75;fill:#15CCBE;}
	.st10{fill:#214A81;}
	.st11{fill:#D7E8F7;}
	.st12{fill:#FFFFFF;}
	.st13{fill:#FAFAFB;}
	.st14{fill:#183963;}
	.st15{fill:#F5D55C;}
	.st16{fill:#5CA9AD;}
	.st17{fill:#2A496F;}
	.st18{fill:#F7E02C;}
	.st19{fill:#A1BC31;}
	.st20{fill:#EF6C74;}
	.st21{display:none;}
	.st22{display:inline;fill:#F6BA99;}
	.st23{display:inline;fill:#154593;}
	.st24{display:inline;fill:#153B72;}
	.st25{display:inline;fill:#F17F60;}
	.st26{display:inline;}
	.st27{fill:#00143A;}
	.st28{fill:#B87333;}
	.st29{fill:#F6BA99;}
	.st30{opacity:0.33;}
	.st31{fill:#F2957E;}
	.st32{fill:#F3F0EB;}
	.st33{display:inline;opacity:0.34;fill:url(#SVGID_1_);}
	.st34{fill:#B4CCE9;}
	.st35{fill:#102D51;}
	.st36{display:inline;opacity:0.36;fill:#102D51;}
	.st37{fill:#FBFEFF;}
	.st38{fill:#EDBE48;}
	.st39{fill:#DCDEEF;}
	.st40{fill:#CE9F36;}
	.st41{fill:#EA6F49;}
	.st42{fill:#263A49;}
	.st43{fill:#F99677;}
	.st44{fill:#DD7052;}
	.st45{fill:#D8CBD5;}
	.st46{fill:#E5E5E5;}
</style>
<g id="BACKGROUND">
	<g>
		<path class="st0" d="M-461.2,64.6c15.6,1,22.2-9.6,29.5-23.3c20.1-37.5,64.8-33.9,79.8-10.8c10.6,16.4,33.6,13,52.1,6.6
			c18.3-6.3,49.4-12.4,74.1-4.8c21.6,6.6,30.5,30.3,50.2,28.8c43-3.2,64.7,39.3,56.9,57.8c-5.1,12.1-7.6,25.6-3.5,38.1
			c4.6,13.7,15,24.6,23.4,36.3c8.4,11.8,15.2,26.5,11,40.3c-3.6,11.8-14.2,20-20.9,30.5c-20.6,32.5-0.2,82.2-27.6,109.3
			c-19.6,19.4-51.6,14.9-79.1,18.6c-22.9,3.1-44.4,12.7-67.2,16.5c-46.1,7.6-92.8-9.2-139.5-9.6c-16.5-0.2-33.3,1.7-49.2-2.4
			c-21.3-5.4-39.4-21.8-46.8-42.3c-10.2-28.3-0.5-61.1-12.1-88.9c-9.4-22.6-32.3-41.1-30.9-65.5c0.9-15.2,11.3-27.9,18.4-41.4
			C-531.8,138.2-545.9,58.9-461.2,64.6z M-325.1,27.8c-4.1,0-7.4,2.5-7.4,5.7s3.3,5.4,7.4,5.7c13.3,0.9,13.3-4.5,13.3-7.7
			C-311.7,26.5-321,27.8-325.1,27.8z M-189.5,52.1c3.6,2.9,8.1,4.7,12.8,5c1.2,0.1,2.6,0,3.5-0.8c1.2-1,1.3-3,0.3-4.1
			c-0.7-0.7-1.6-1-2.5-1.4c-1.5-0.6-3-1.5-3.9-2.9c-0.3-0.4-0.5-0.9-0.9-1.1C-182.8,45.4-194.2,48.2-189.5,52.1z M-166.7,57.1
			c1.2,0.4,2.5,0,3.6-0.4c0.8-0.2,1.7-0.8,1.5-1.6c-0.1-0.4-0.4-0.6-0.8-0.8c-1.6-0.8-3.6-1.4-5.1-0.4
			C-169.1,55.1-167.9,56.7-166.7,57.1z M-112.5,164.4c0.2,1.8,1.3,3.3,2.4,4.7c2,2.8,4.1,5.6,6.8,7.8c1.1,0.9,2.5,1.7,3.9,1.8
			c1.3,0,2.6-0.6,3.7-1.3c2.6-1.9,4.4-4.9,4.8-8.1c0.5-4.4-1.5-8.7-3.9-12.4c-1.5-2.3-3.2-4.6-5.7-5.9c-4.1-2.1-6.9-0.3-8,3.4
			C-109.6,157.7-112.9,160.6-112.5,164.4z M-552.8,266.9c-2.2,1.9-0.2,7.5,0.4,11.2c0.2,1.1,0.5,2.3,1.2,3.2c1,1.2,2.6,1.7,4.1,2.1
			c2.7,0.8,5.9,1.4,7.9-0.4c1.5-1.4,1.7-3.6,1.7-5.7c0-1.9-0.1-3.7-0.3-5.6c-0.1-0.9-0.2-1.8-0.7-2.6c-0.6-1-1.7-1.5-2.7-2
			C-545.1,265.6-550.7,265-552.8,266.9z M-419.6,407.7c-1.3,0.3-2.8,0.8-3,2.1c-0.2,1.1,0.7,2,1.6,2.6c7.1,5.3,16.7,5.6,25.6,5.8
			c1,0,2.1,0,3.1-0.4c1.9-0.8,2.8-3.3,1.9-5.2c-0.3-0.7-0.8-1.2-1.4-1.8C-398.9,403.9-410.7,405.9-419.6,407.7z M-242,404.1
			c-8,5.9,0.1,11.1,10.2,7.2c5.5-2.1,10.7-4.2,16.3-5.6c1.8-0.5,12.7-2.8,12.7-5.3c0-6.5-12.3-5-20.1-3.9
			C-229,397.5-235.3,399.2-242,404.1z"/>
	</g>
	<g>
		<path class="st0" d="M-101.5,27l-25.5-8.3c-5.8-1.9-12,1.3-13.8,7l-1.1,3.2l-5.1,1.4c-1.3,0.4-1.7,1.5-0.8,2.6l3.3,4.1l-1.1,3.2
			c-1.9,5.8,1.3,12,7,13.8l25.5,8.3c5.8,1.9,12-1.3,13.8-7l4.7-14.6C-92.6,35.1-95.7,28.9-101.5,27z"/>
		<g class="st1">
			<path class="st2" d="M-105.2,46.1l-6.1-5l0.9-2.8l8.6,7.6l-0.8,2.4l-11.4,1.1l0.9-2.8L-105.2,46.1z"/>
			<path class="st2" d="M-121.5,33.4c0.1-0.3,0.3-0.5,0.5-0.6c0.2-0.1,0.5-0.1,0.8,0c0.4,0.1,0.6,0.3,0.7,0.6c0.1,0.3,0.1,0.7,0,1.4
				l-1,12.4c-0.1,0.7-0.1,1.1-0.2,1.2c-0.2,0.6-0.6,0.8-1.3,0.5c-0.3-0.1-0.5-0.2-0.6-0.4c-0.1-0.2-0.2-0.4-0.2-0.6c0-0.2,0-0.6,0-1
				l0.9-12.4C-121.6,34-121.5,33.6-121.5,33.4z"/>
			<path class="st2" d="M-139.6,33.6l11.4-1.1l-0.9,2.8l-7.9,0.4l6.1,5l-0.9,2.8l-8.6-7.6L-139.6,33.6z"/>
		</g>
	</g>
	<g>
		<path class="st0" d="M-303.5-4.7l20.6-5.8c4.6-1.3,9.5,1.4,10.8,6l0.7,2.6l4,1.3c1,0.3,1.3,1.3,0.6,2.1l-2.7,3.2l0.7,2.6
			c1.3,4.6-1.4,9.5-6,10.8l-20.6,5.8c-4.6,1.3-9.5-1.4-10.8-6l-3.3-11.8C-310.9,1.5-308.2-3.3-303.5-4.7z"/>
		<g class="st1">
			<path class="st2" d="M-278.9,3c-0.3-0.3-0.5-0.6-0.7-1c-0.2-0.4-0.4-1-0.6-1.7c-0.2-0.7-0.4-1.2-0.5-1.4
				c-0.1-0.2-0.2-0.4-0.4-0.4c-0.1-0.1-0.4-0.1-0.7,0c-0.2,0-0.4,0-0.6-0.1c-0.2-0.1-0.3-0.3-0.4-0.6c-0.2-0.6,0.1-1.1,0.9-1.3
				c0.8-0.2,1.4-0.2,2,0.2c0.6,0.3,1,0.8,1.2,1.6c0.4,1.2,0.6,1.9,0.7,2.2c0.1,0.3,0.2,0.6,0.4,0.8c0.1,0.2,0.3,0.4,0.5,0.6
				c0.2,0.1,0.5,0.2,1,0.4c0.4,0.1,0.6,0.4,0.7,0.8c0.1,0.3,0.1,0.5,0,0.6c-0.1,0.2-0.2,0.3-0.4,0.6c-0.2,0.2-0.4,0.5-0.5,0.7
				c-0.1,0.2-0.1,0.5-0.1,0.9c0,0.2,0.1,0.5,0.2,1c0.1,0.5,0.3,1.2,0.5,2c0.1,0.5,0.1,0.9,0,1.4c-0.1,0.4-0.3,0.8-0.6,1.1
				c-0.3,0.3-0.7,0.5-1.2,0.7c-0.8,0.2-1.3,0-1.5-0.6c-0.1-0.3-0.1-0.5,0-0.7c0.1-0.2,0.2-0.4,0.4-0.4c0.2-0.1,0.4-0.2,0.5-0.3
				c0.1-0.1,0.2-0.2,0.2-0.3c0-0.2,0-0.4,0-0.6c0-0.3-0.1-0.7-0.3-1.2c-0.2-0.7-0.3-1.3-0.4-1.8c0-0.5,0-0.9,0.1-1.2
				c0.1-0.4,0.4-0.7,0.7-1C-278.2,3.5-278.6,3.3-278.9,3z"/>
			<path class="st2" d="M-283.5,9.7c-0.3-0.1-0.5-0.4-0.6-0.8c-0.1-0.3-0.1-0.6,0.1-0.9c0.2-0.3,0.4-0.5,0.8-0.6
				c0.3-0.1,0.7-0.1,1,0.1c0.3,0.2,0.5,0.4,0.6,0.7c0.1,0.4,0.1,0.7-0.1,1c-0.2,0.3-0.4,0.5-0.8,0.6C-282.9,9.9-283.2,9.9-283.5,9.7
				z"/>
			<path class="st2" d="M-288.6,11.2c-0.3-0.1-0.5-0.4-0.6-0.8c-0.1-0.3-0.1-0.6,0.1-0.9c0.2-0.3,0.4-0.5,0.8-0.6
				c0.3-0.1,0.7-0.1,1,0.1c0.3,0.2,0.5,0.4,0.6,0.7c0.1,0.4,0.1,0.7-0.1,1c-0.2,0.3-0.4,0.5-0.8,0.6
				C-288,11.3-288.3,11.3-288.6,11.2z"/>
			<path class="st2" d="M-293.8,12.6c-0.3-0.1-0.5-0.4-0.6-0.8c-0.1-0.3-0.1-0.6,0.1-0.9c0.2-0.3,0.4-0.5,0.8-0.6
				c0.3-0.1,0.7-0.1,1,0.1c0.3,0.2,0.5,0.4,0.6,0.7c0.1,0.4,0.1,0.7-0.1,1c-0.2,0.3-0.4,0.5-0.8,0.6
				C-293.2,12.8-293.5,12.8-293.8,12.6z"/>
			<path class="st2" d="M-299,10.5c0.3,0.2,0.5,0.6,0.7,1c0.2,0.4,0.4,1,0.6,1.7c0.1,0.5,0.3,0.9,0.3,1.1c0.1,0.3,0.2,0.4,0.3,0.6
				c0.1,0.1,0.2,0.2,0.3,0.2c0.1,0,0.3,0,0.6,0c0.1,0,0.3,0,0.4,0c0.1,0.1,0.2,0.1,0.3,0.3c0.1,0.1,0.2,0.3,0.2,0.5
				c0.1,0.3,0.1,0.6-0.1,0.8c-0.2,0.2-0.4,0.4-0.8,0.5c-0.8,0.2-1.4,0.2-2-0.2c-0.6-0.3-1-0.8-1.2-1.6c-0.2-0.8-0.4-1.4-0.6-1.9
				c-0.2-0.5-0.3-0.9-0.5-1.1c-0.1-0.2-0.3-0.4-0.5-0.6c-0.2-0.1-0.5-0.3-1-0.4c-0.4-0.1-0.6-0.4-0.7-0.8c-0.1-0.3-0.1-0.5,0-0.7
				c0.1-0.2,0.2-0.4,0.4-0.6c0.2-0.2,0.4-0.4,0.5-0.7c0.1-0.2,0.2-0.5,0.1-0.9c0-0.2-0.2-1.2-0.7-3c-0.1-0.5-0.1-0.9,0-1.4
				c0.1-0.4,0.3-0.8,0.6-1.1c0.3-0.3,0.7-0.5,1.2-0.7c0.8-0.2,1.3,0,1.4,0.6c0.1,0.3,0.1,0.5,0,0.7c-0.1,0.2-0.2,0.3-0.4,0.4
				c-0.2,0.1-0.4,0.2-0.5,0.3c-0.1,0.1-0.2,0.2-0.2,0.3c0,0.1,0,0.4,0,0.6c0.1,0.3,0.2,0.7,0.3,1.2c0.1,0.5,0.3,1,0.3,1.4
				c0.1,0.4,0.1,0.8,0,1.1c0,0.3-0.1,0.6-0.2,0.8c-0.1,0.2-0.3,0.5-0.5,0.8C-299.7,10.1-299.3,10.3-299,10.5z"/>
		</g>
	</g>
	<ellipse class="st0" cx="-134.3" cy="402.3" rx="38.6" ry="3.6"/>
	<g>
		<path class="st3" d="M-165.4,352.3l6.6,45c0,0,5.2,7,24.9,7s24.9-7,24.9-7l6.6-45H-165.4z"/>
		<path class="st4" d="M-134,376.8c11.6,0,21.9-1.5,28.4-3.7l2.9-20.1h-62.8l2.9,20.1C-155.9,375.3-145.6,376.8-134,376.8z"/>
		<path class="st3" d="M-98.1,362.7c0,5.3-16.1,9.5-35.9,9.5c-19.8,0-35.9-4.3-35.9-9.5l-1.7-14.3h75.2L-98.1,362.7z"/>
		<ellipse class="st5" cx="-134" cy="348.4" rx="37.6" ry="10"/>
		<ellipse class="st4" cx="-134" cy="348.2" rx="33.6" ry="7.5"/>
		<path class="st4" d="M-166,350.4c4.3-3.1,17-5.3,32.1-5.3c15,0,27.8,2.2,32.1,5.3c1-0.7,1.5-1.5,1.5-2.3c0-4.2-15-7.5-33.6-7.5
			c-18.6,0-33.6,3.4-33.6,7.5C-167.6,349-167,349.7-166,350.4z"/>
		<g>
			<path class="st5" d="M-107.5,288.5c2.4-8.7-0.5-15.6-3.7-23.4c-3.2-7.8-3.7-16-2.5-24.2c1.6-11.1,5.3-21.8,1.1-32.6
				c-4-10.2-7.8-23.6-18.8-27.9c-10.7-4.6-18.8,6-18.6,15.7c0.2,9.7,5.7,18.5,2.9,28.1c-2.1,7.9-4.8,17.2-0.7,24.7
				c4.9,9.3,14,15.9,10.6,27.2c-1.3,4.1-3.6,7.5-4,11.6c-0.6,6.2,2.6,7.7,5.4,12.6c11.8,20.7-9.8,29-1.3,51.8c0.2,0.6,0.9,1.1,1.5,1
				l0,0c0.7,0,1.4-0.6,1.4-1.3c2.7-25.4,20.8-16.7,21-37.3c0-3.8-1.1-7.7-0.7-11.5C-113.5,297.1-108.9,294-107.5,288.5z"/>
			<path class="st6" d="M-131.6,296.2c0,0,1,11.6,9.5,13.1"/>
			<path class="st6" d="M-139.7,239.9c0,0,0.6,13,11.5,16.5"/>
			<path class="st6" d="M-115.4,222.2c0,0-0.5,13.5-11.1,15.6"/>
			<path class="st6" d="M-115.8,264.4c0,0,2.6,14.8-6.1,18.6"/>
			<path class="st6" d="M-118,314.2c0,0,0,13.5-13.6,14.8"/>
			<path class="st6" d="M-134.9,203.4c0,0,1,13.6,9.1,15.9"/>
			<path class="st6" d="M-134,194c9.3,9.2,8.6,30.2,7.9,39.8c-0.6,7-4.3,23.4,0,35.3c4.6,12.6,8.7,26,3.5,43.4
				c-3.6,12.1-15.5,18-13.1,40"/>
			<path class="st7" d="M-113.3,313.3c0,0.4,0,0.8,0,1.2c-0.1,13.5-8,14.4-14.1,20.6c0.7-3.6,0.9-8.1,3.3-11
				c2.6-2.9,6.2-3.5,8.8-7.1C-114.3,315.6-113.7,314.4-113.3,313.3z M-111.2,265.1c-3.2-7.8-3.7-16-2.5-24.2
				c0.1-0.8,0.2-1.6,0.4-2.4c-4.2,1.6-7.5,4.7-9.5,9c-6,12.6-1.3,21.2,3.9,30.7c4.2,7.8,1.5,15,2.4,23.2c0.4,3.4,1.9,6.1,3,8.7
				c-0.3-2.4-0.6-4.8-0.4-7.1c0.5-5.9,5.1-8.9,6.5-14.4C-105.1,279.8-108,272.9-111.2,265.1z M-133.4,331.2c-0.8-1.8-1.8-3.7-2-5.7
				c-2.7,7-5.7,14.3-2.5,24.6c0,0,0,0.1,0,0.1c0.2,0.6,0.4,1.2,0.6,1.8c0,0.1,0.1,0.2,0.2,0.3c0,0,0,0,0,0.1
				c0.1,0.1,0.2,0.2,0.2,0.3c0,0,0,0,0,0c0.3,0.2,0.7,0.4,1.1,0.4h0c0.3,0,0.6-0.1,0.8-0.3c0.5-0.3,0.6-0.7,0.6-1c0,0,0-0.1,0-0.1
				c0.4-3.8,1.1-6.8,2.1-9.3c-0.6,0.4-1.1,0.7-1.7,1.1C-132.1,339.3-130.8,336.9-133.4,331.2z"/>
		</g>
		<g>
			<path class="st8" d="M-79.8,284c-5.3-9.7-5.3-16.1-4.7-26.5c0.6-10.6-2.6-24.7-15.6-27.1c-9.7-1.8-17.6,2.2-21.2,9.8
				c-6,12.6-1.3,21.2,3.9,30.7c4.2,7.8,1.5,15,2.4,23.2c0.9,8.2,8.2,12.1,2.1,20.6c-2.6,3.5-6.2,4.1-8.8,7.1
				c-2.6,3.2-2.6,8.3-3.5,12.1c-2.4,9.5-11.7,8.1-12,17.7c0,0.7,0.6,1.4,1.1,1.4c0.5,0,0.9,0.1,1.3-0.6c2.2-3.9,5.8-3.3,9.8-5.1
				c3-1.3,3.9-5,11.1-5.9c9.4-1.1,17.9,5,22.6-7.6c1.8-4.4,1.2-8.2,2.1-12.6c0.9-5.9,4.7-9.4,8.5-13.5
				C-74.2,300.1-75.1,292.5-79.8,284z"/>
			<g>
				<path class="st6" d="M-113.2,253.8c0,0,6.2,10.9,14.8,11.7"/>
				<path class="st6" d="M-106.7,287.6c0,0-0.5,19.7,5.8,23.8"/>
				<path class="st6" d="M-86.3,274.5c0,0-0.7,16.9-11.3,19.9"/>
				<path class="st6" d="M-95,322.9c0,0-5.4,16.3-20.8,13.6"/>
				<path class="st6" d="M-97.2,238.7c0,0,4.4,12.8-2.2,18.9"/>
				<path class="st6" d="M-136.3,352.2c1.4-5.3,9.2-7.2,11.5-8.7c24.9-16.2,34.6-47.5,22.3-100.5"/>
			</g>
			<path class="st9" d="M-137.4,351.7c0,0.7,0.6,1.4,1.1,1.4c0,0,0.1,0,0.1,0c1.6-1.2-0.4-2.9,2-8.5
				C-136,346.2-137.3,348.2-137.4,351.7z"/>
		</g>
		<g>
			<path class="st8" d="M-135.6,328.4c-2.9-6.3-0.2-14.3-3-18.9c-3.5-5.7-9.4-1.4-16.2-9.2c-5.7-6.6-1.6-15.7-14.6-22.6
				c-4-2.1-8.6-1.1-10.1,3.4c-1.9,4.2,1.1,10.3,2.5,14.3c1.3,3.4,2.9,6,2.3,9.8c0,0,0,0.1,0,0.1c-0.8,2.9-2.7,4.5-1.7,8
				c2.2,8.4,14.1,7.7,20.1,12.9c4.3,3.7,0.4,8.1,4.6,13.7c4.1,5.6,6.2-0.5,13.7,12.7c0.3,0.5,0.9,0.6,1.3,0.4l0,0
				c0.3-0.2,0.5-0.5,0.5-0.9C-137.5,338-131.4,337.6-135.6,328.4z"/>
			<g>
				<path class="st6" d="M-175.7,287.8c0,0,0.7,6.5,6.9,8.5"/>
				<path class="st6" d="M-172.2,306.2c0,0,6.2,7.1,13.9,4.3"/>
				<path class="st6" d="M-149.3,306.7c0,0,4.7,7.7,1.2,11.3"/>
				<path class="st6" d="M-142.1,321.2c0,0,2.8,9.5-2,13"/>
				<path class="st6" d="M-164,292.1c0,0,4,9.9,0.6,13.5"/>
				<path class="st6" d="M-158.4,320.5c0,0,3.6,6,13.7,5.4"/>
				<path class="st6" d="M-151.5,333.5c0,0,1,6.1,10.9,7.5"/>
				<path class="st6" d="M-137.5,352.7c-0.4-13-7.3-14-7.1-21.7c0.2-6,0-11.7-7.3-16c-12.5-7.5-17.7-15.3-20.2-31.8"/>
			</g>
		</g>
	</g>
	<g>
		<path class="st0" d="M46.7,8.8L21.2,0.5c-5.8-1.9-12,1.3-13.8,7l-1.1,3.2l-5.1,1.4c-1.3,0.4-1.7,1.5-0.8,2.6L3.7,19l-1.1,3.2
			c-1.9,5.8,1.3,12,7,13.8l25.5,8.3c5.8,1.9,12-1.3,13.8-7l4.7-14.6C55.7,16.9,52.5,10.7,46.7,8.8z"/>
		<g class="st1">
			<path class="st2" d="M43.1,27.9L37,23l0.9-2.8l8.6,7.6l-0.8,2.4l-11.4,1.1l0.9-2.8L43.1,27.9z"/>
			<path class="st2" d="M26.8,15.2c0.1-0.3,0.3-0.5,0.5-0.6c0.2-0.1,0.5-0.1,0.8,0c0.4,0.1,0.6,0.3,0.7,0.6c0.1,0.3,0.1,0.7,0,1.4
				l-1,12.4c-0.1,0.7-0.1,1.1-0.2,1.2c-0.2,0.6-0.6,0.8-1.3,0.5c-0.3-0.1-0.5-0.2-0.6-0.4c-0.1-0.2-0.2-0.4-0.2-0.6c0-0.2,0-0.6,0-1
				l0.9-12.4C26.6,15.8,26.7,15.4,26.8,15.2z"/>
			<path class="st2" d="M8.6,15.5l11.4-1.1l-0.9,2.8l-7.9,0.4l6.1,5l-0.9,2.8l-8.6-7.6L8.6,15.5z"/>
		</g>
	</g>
</g>
<g id="OBJECTS">
	<g>
		<ellipse class="st8" cx="-392.8" cy="383.5" rx="38.6" ry="3.6"/>
		<g>
			<path class="st3" d="M-167.3,333.6H-476c-6,0-10.9-4.9-10.9-10.9v-22.5h330.6v22.5C-156.3,328.7-161.2,333.6-167.3,333.6z"/>
			<rect x="-354.9" y="333.6" class="st4" width="67.8" height="29.2"/>
			<path class="st10" d="M-156.3,300.8h-330.6V117.7c0-5.6,4.5-10.1,10.1-10.1h310.4c5.6,0,10.1,4.5,10.1,10.1V300.8z"/>
			<rect x="-473.5" y="121.5" class="st11" width="305.8" height="167.4"/>
			<circle class="st12" cx="-321.6" cy="315.4" r="7.5"/>
			<path class="st12" d="M-189.5,272h-144.3c-1.7,0-3.1-1.4-3.1-3.1V139.8c0-1.7,1.4-3.1,3.1-3.1h144.3c1.7,0,3.1,1.4,3.1,3.1v129.1
				C-186.4,270.6-187.8,272-189.5,272z"/>
			<path class="st3" d="M-258,372.6h-127.1l0,0c0-5.4,4.4-9.8,9.8-9.8h107.6C-262.4,362.8-258,367.2-258,372.6L-258,372.6z"/>
		</g>
		<g>
			<path class="st13" d="M-442.7,82.7v-4.9c0-0.5-0.4-0.9-0.9-0.9h-26.5c-0.5,0-0.9,0.4-0.9,0.9v5.8v202.5c0,0.5,0.4,0.9,0.9,0.9
				h122.6c0.5,0,0.9-0.4,0.9-0.9V84.6c0-0.5-0.4-0.9-0.9-0.9h-94.2C-442.3,83.6-442.7,83.2-442.7,82.7z"/>
			
				<rect x="-508.4" y="125.3" transform="matrix(-1.836970e-16 1 -1 -1.836970e-16 -223.5315 594.2318)" class="st14" width="199.1" height="120.1"/>
			<g>
				<g>
					<g>
						<rect x="-458.2" y="92.1" class="st15" width="9" height="1.3"/>
						<rect x="-458.2" y="147.2" class="st15" width="9" height="1.3"/>
						<rect x="-451.7" y="100" class="st15" width="9" height="1.3"/>
						<rect x="-441.9" y="100" class="st16" width="9" height="1.3"/>
						<rect x="-432" y="100" class="st16" width="22.2" height="1.3"/>
						<rect x="-458.2" y="95.3" class="st17" width="9" height="1.3"/>
						<rect x="-441.9" y="103" class="st17" width="14" height="1.3"/>
						<rect x="-427.1" y="103" class="st17" width="33.1" height="1.3"/>
						<rect x="-393.3" y="103" class="st17" width="10.6" height="1.3"/>
						<rect x="-381.9" y="103" class="st17" width="12.5" height="1.3"/>
						<rect x="-434.2" y="106" class="st17" width="27.6" height="1.3"/>
						<rect x="-405.7" y="106" class="st17" width="36.2" height="1.3"/>
						<rect x="-441.9" y="106" class="st17" width="6.6" height="1.3"/>
						<rect x="-368.6" y="106" class="st15" width="9" height="1.3"/>
						<rect x="-451.7" y="110.1" class="st15" width="9" height="1.3"/>
						<rect x="-451.7" y="121.1" class="st15" width="9" height="1.3"/>
						<rect x="-441.9" y="113.1" class="st15" width="9" height="1.3"/>
						<rect x="-432" y="113.1" class="st16" width="22.2" height="1.3"/>
						<rect x="-432" y="127.6" class="st16" width="5.8" height="1.3"/>
						<rect x="-441.9" y="116.1" class="st17" width="14" height="1.3"/>
						<rect x="-427.1" y="116.1" class="st17" width="33.1" height="1.3"/>
						<rect x="-393.3" y="116.1" class="st17" width="10.6" height="1.3"/>
						<rect x="-381.9" y="116.1" class="st17" width="12.5" height="1.3"/>
						<rect x="-434.2" y="119.1" class="st17" width="27.6" height="1.3"/>
						<rect x="-441.9" y="119.1" class="st17" width="6.6" height="1.3"/>
						<rect x="-405.7" y="119.1" class="st15" width="9" height="1.3"/>
						<rect x="-451.7" y="124.6" class="st15" width="9" height="1.3"/>
						<rect x="-451.7" y="143.4" class="st15" width="9" height="1.3"/>
						<rect x="-441.9" y="127.6" class="st15" width="9" height="1.3"/>
						<rect x="-441.9" y="140.9" class="st15" width="9" height="1.3"/>
						<rect x="-432.4" y="130.1" class="st15" width="3.7" height="1.3"/>
						<rect x="-428" y="130.1" class="st17" width="5.5" height="1.3"/>
						<rect x="-422" y="130.1" class="st17" width="6.1" height="1.3"/>
						<rect x="-415.4" y="130.1" class="st17" width="4.6" height="1.3"/>
						<rect x="-428" y="138.3" class="st17" width="5.5" height="1.3"/>
						<rect x="-422" y="138.3" class="st17" width="6.1" height="1.3"/>
						<rect x="-415.4" y="138.3" class="st17" width="4.6" height="1.3"/>
						<rect x="-428" y="132.8" class="st17" width="5.5" height="1.3"/>
						<rect x="-418.6" y="132.8" class="st17" width="7.8" height="1.3"/>
						<rect x="-422" y="132.8" class="st17" width="3" height="1.3"/>
						<rect x="-428" y="135.6" class="st17" width="2.2" height="1.3"/>
						<rect x="-425.3" y="135.6" class="st17" width="2.8" height="1.3"/>
						<rect x="-422" y="135.6" class="st17" width="11.2" height="1.3"/>
						<rect x="-432.4" y="132.8" class="st15" width="3.7" height="1.3"/>
						<rect x="-432.4" y="135.6" class="st15" width="3.7" height="1.3"/>
						<rect x="-432.4" y="138.3" class="st15" width="3.7" height="1.3"/>
						<rect x="-410.1" y="130.1" class="st15" width="3.7" height="1.3"/>
						<rect x="-410.1" y="132.8" class="st15" width="3.7" height="1.3"/>
						<rect x="-410.1" y="135.6" class="st15" width="3.7" height="1.3"/>
						<rect x="-410.1" y="138.3" class="st15" width="3.7" height="1.3"/>
					</g>
					<g>
						<rect x="-458.2" y="151.5" class="st15" width="9" height="1.3"/>
						<rect x="-451.7" y="159.4" class="st15" width="9" height="1.3"/>
						<rect x="-441.9" y="159.4" class="st16" width="9" height="1.3"/>
						<rect x="-432" y="159.4" class="st16" width="22.2" height="1.3"/>
						<rect x="-458.2" y="154.6" class="st17" width="9" height="1.3"/>
						<rect x="-441.9" y="162.4" class="st17" width="14" height="1.3"/>
						<rect x="-427.1" y="162.4" class="st17" width="33.1" height="1.3"/>
						<rect x="-393.3" y="162.4" class="st17" width="10.6" height="1.3"/>
						<rect x="-381.9" y="162.4" class="st17" width="12.5" height="1.3"/>
						<rect x="-434.2" y="165.4" class="st17" width="27.6" height="1.3"/>
						<rect x="-405.7" y="165.4" class="st17" width="36.2" height="1.3"/>
						<rect x="-441.9" y="165.4" class="st17" width="6.6" height="1.3"/>
						<rect x="-368.6" y="165.4" class="st15" width="9" height="1.3"/>
						<rect x="-451.7" y="169.5" class="st15" width="9" height="1.3"/>
						<rect x="-451.7" y="180.5" class="st15" width="9" height="1.3"/>
						<rect x="-441.9" y="172.5" class="st15" width="9" height="1.3"/>
						<rect x="-432" y="172.5" class="st16" width="22.2" height="1.3"/>
						<rect x="-441.9" y="175.5" class="st17" width="14" height="1.3"/>
						<rect x="-427.1" y="175.5" class="st17" width="33.1" height="1.3"/>
						<rect x="-393.3" y="175.5" class="st17" width="10.6" height="1.3"/>
						<rect x="-381.9" y="175.5" class="st17" width="12.5" height="1.3"/>
						<rect x="-434.2" y="178.4" class="st17" width="27.6" height="1.3"/>
						<rect x="-441.9" y="178.4" class="st17" width="6.6" height="1.3"/>
						<rect x="-405.7" y="178.4" class="st15" width="9" height="1.3"/>
						<rect x="-451.7" y="183.9" class="st15" width="9" height="1.3"/>
					</g>
				</g>
				<g>
					<g>
						<rect x="-458.2" y="187.8" class="st15" width="9" height="1.3"/>
						<rect x="-458.2" y="242.9" class="st15" width="9" height="1.3"/>
						<rect x="-451.7" y="195.7" class="st15" width="9" height="1.3"/>
						<rect x="-441.9" y="195.7" class="st16" width="9" height="1.3"/>
						<rect x="-432" y="195.7" class="st16" width="22.2" height="1.3"/>
						<rect x="-458.2" y="190.9" class="st17" width="9" height="1.3"/>
						<rect x="-441.9" y="198.7" class="st17" width="14" height="1.3"/>
						<rect x="-427.1" y="198.7" class="st17" width="33.1" height="1.3"/>
						<rect x="-393.3" y="198.7" class="st17" width="10.6" height="1.3"/>
						<rect x="-381.9" y="198.7" class="st17" width="12.5" height="1.3"/>
						<rect x="-434.2" y="201.7" class="st17" width="27.6" height="1.3"/>
						<rect x="-405.7" y="201.7" class="st17" width="36.2" height="1.3"/>
						<rect x="-441.9" y="201.7" class="st17" width="6.6" height="1.3"/>
						<rect x="-368.6" y="201.7" class="st15" width="9" height="1.3"/>
						<rect x="-451.7" y="205.8" class="st15" width="9" height="1.3"/>
						<rect x="-451.7" y="216.8" class="st15" width="9" height="1.3"/>
						<rect x="-441.9" y="208.8" class="st15" width="9" height="1.3"/>
						<rect x="-432" y="208.8" class="st16" width="22.2" height="1.3"/>
						<rect x="-432" y="223.2" class="st16" width="5.8" height="1.3"/>
						<rect x="-441.9" y="211.8" class="st17" width="14" height="1.3"/>
						<rect x="-427.1" y="211.8" class="st17" width="33.1" height="1.3"/>
						<rect x="-393.3" y="211.8" class="st17" width="10.6" height="1.3"/>
						<rect x="-381.9" y="211.8" class="st17" width="12.5" height="1.3"/>
						<rect x="-434.2" y="214.8" class="st17" width="27.6" height="1.3"/>
						<rect x="-441.9" y="214.8" class="st17" width="6.6" height="1.3"/>
						<rect x="-405.7" y="214.8" class="st15" width="9" height="1.3"/>
						<rect x="-451.7" y="220.3" class="st15" width="9" height="1.3"/>
						<rect x="-451.7" y="239.1" class="st15" width="9" height="1.3"/>
						<rect x="-441.9" y="223.2" class="st15" width="9" height="1.3"/>
						<rect x="-441.9" y="236.6" class="st15" width="9" height="1.3"/>
						<rect x="-432.4" y="225.7" class="st15" width="3.7" height="1.3"/>
						<rect x="-428" y="225.7" class="st17" width="5.5" height="1.3"/>
						<rect x="-422" y="225.7" class="st17" width="6.1" height="1.3"/>
						<rect x="-415.4" y="225.7" class="st17" width="4.6" height="1.3"/>
						<rect x="-428" y="234" class="st17" width="5.5" height="1.3"/>
						<rect x="-422" y="234" class="st17" width="6.1" height="1.3"/>
						<rect x="-415.4" y="234" class="st17" width="4.6" height="1.3"/>
						<rect x="-428" y="228.5" class="st17" width="5.5" height="1.3"/>
						<rect x="-418.6" y="228.5" class="st17" width="7.8" height="1.3"/>
						<rect x="-422" y="228.5" class="st17" width="3" height="1.3"/>
						<rect x="-428" y="231.2" class="st17" width="2.2" height="1.3"/>
						<rect x="-425.3" y="231.2" class="st17" width="2.8" height="1.3"/>
						<rect x="-422" y="231.2" class="st17" width="11.2" height="1.3"/>
						<rect x="-432.4" y="228.5" class="st15" width="3.7" height="1.3"/>
						<rect x="-432.4" y="231.2" class="st15" width="3.7" height="1.3"/>
						<rect x="-432.4" y="234" class="st15" width="3.7" height="1.3"/>
						<rect x="-410.1" y="225.7" class="st15" width="3.7" height="1.3"/>
						<rect x="-410.1" y="228.5" class="st15" width="3.7" height="1.3"/>
						<rect x="-410.1" y="231.2" class="st15" width="3.7" height="1.3"/>
						<rect x="-410.1" y="234" class="st15" width="3.7" height="1.3"/>
					</g>
					<g>
						<rect x="-458.2" y="247.2" class="st15" width="9" height="1.3"/>
						<rect x="-451.7" y="255.1" class="st15" width="9" height="1.3"/>
						<rect x="-441.9" y="255.1" class="st16" width="9" height="1.3"/>
						<rect x="-432" y="255.1" class="st16" width="22.2" height="1.3"/>
						<rect x="-458.2" y="250.3" class="st17" width="9" height="1.3"/>
						<rect x="-441.9" y="258.1" class="st17" width="14" height="1.3"/>
						<rect x="-427.1" y="258.1" class="st17" width="33.1" height="1.3"/>
						<rect x="-393.3" y="258.1" class="st17" width="10.6" height="1.3"/>
						<rect x="-381.9" y="258.1" class="st17" width="12.5" height="1.3"/>
						<rect x="-434.2" y="261" class="st17" width="27.6" height="1.3"/>
						<rect x="-405.7" y="261" class="st17" width="36.2" height="1.3"/>
						<rect x="-441.9" y="261" class="st17" width="6.6" height="1.3"/>
						<rect x="-368.6" y="261" class="st15" width="9" height="1.3"/>
						<rect x="-451.7" y="265.2" class="st15" width="9" height="1.3"/>
						<rect x="-451.7" y="276.2" class="st15" width="9" height="1.3"/>
						<rect x="-441.9" y="268.2" class="st15" width="9" height="1.3"/>
						<rect x="-432" y="268.2" class="st16" width="22.2" height="1.3"/>
						<rect x="-441.9" y="271.1" class="st17" width="14" height="1.3"/>
						<rect x="-427.1" y="271.1" class="st17" width="33.1" height="1.3"/>
						<rect x="-393.3" y="271.1" class="st17" width="10.6" height="1.3"/>
						<rect x="-381.9" y="271.1" class="st17" width="12.5" height="1.3"/>
						<rect x="-434.2" y="274.1" class="st17" width="27.6" height="1.3"/>
						<rect x="-441.9" y="274.1" class="st17" width="6.6" height="1.3"/>
						<rect x="-405.7" y="274.1" class="st15" width="9" height="1.3"/>
						<rect x="-451.7" y="279.6" class="st15" width="9" height="1.3"/>
					</g>
				</g>
			</g>
			<g>
				<circle class="st15" cx="-466.6" cy="81.3" r="1"/>
				<circle class="st18" cx="-462.9" cy="81.3" r="1"/>
				<circle class="st19" cx="-459.1" cy="81.3" r="1"/>
			</g>
		</g>
		<path class="st20" d="M-243.9,102.6c-1.1-0.9-2.5-1-3.4-1c0-0.7,0-1.1,0-1.1h-18.7c0,0-0.6,12.4,8.9,12.8c4.2,0.2,6.7-1.7,8.1-4.1
			c0.5,0.1,1.2,0.3,2.1,0.3c1,0,2.1-0.2,3-0.8c0.6-0.5,1.4-1.4,1.4-3.2C-242.7,104-243.4,103.1-243.9,102.6z M-245.2,107.2
			c-0.8,0.6-2.2,0.5-3.2,0.3c0.5-1.4,0.8-2.9,0.9-4.1c0.6,0,1.7,0,2.3,0.5c0.4,0.3,0.6,0.8,0.6,1.5
			C-244.6,106.3-244.8,106.9-245.2,107.2z"/>
		<g class="st21">
			<path class="st22" d="M-196.5,114.5c0,0,11.2,3.8,12.5,3.3c1.2-0.5,0.3-4.8-11.2-7.4L-196.5,114.5z"/>
			<path class="st22" d="M-246,110.9c0,0-11.4,3.2-12.1,4.3c-0.8,1.1,2.4,4.1,13.4-0.2L-246,110.9z"/>
			<path class="st22" d="M-229.8,60.6c0,0-3.7,21.8-10.8,22.1c-7.1,0.2-17.1-13.4-17.1-13.4l5.8-6.4c0,0,6.8,8.4,9,7.6
				c2.2-0.8,4.2-12.6,4.2-12.6L-229.8,60.6z"/>
			<polygon class="st23" points="-195.4,87.1 -204.4,87.1 -237.4,88 -249.5,86.4 -223.2,96.1 			"/>
			<path class="st24" d="M-252.2,100.4l59.7,16.2l3.7-12c0,0-57.9-19.1-60.7-18.2C-252.4,87.4-258.4,94-252.2,100.4z"/>
			<path class="st25" d="M-196.3,63.5c0,0,0.6-18.8-16.9-18.8l-5.9,0.1c0,0-20.7-2.5-21,17.7L-196.3,63.5z"/>
			<path class="st25" d="M-205.5,59.4c0,0-0.4,20.3,0.3,23.2c0.7,3,3.9,4.6,2.4,5.5c-1.5,0.8-33.8,0.2-34.5-0.2
				c-0.7-0.4,0.1-2.5,0.5-2.8c3.6-2.6,5.9-16.7,6.9-24.7L-205.5,59.4z"/>
			<path class="st23" d="M-195.4,87.1l-59.3,19.2l3.8,10.7c0,0,60.9-13.3,62.5-15.8C-186.8,98.7-183.9,87-195.4,87.1z"/>
			<path class="st22" d="M-196.3,63.5c0,0,2.3,22-4.4,24.2c-6.7,2.2-20-8.1-20-8.1l3.8-7.8c0,0,8.9,6.2,10.8,4.8
				c1.9-1.4,0.6-13.3,0.6-13.3L-196.3,63.5z"/>
			<path class="st22" d="M-249.4,69l-0.4-2.2c0,0-0.4-1.3-0.7-3.6c-0.1-0.6,0-1.2,0.1-1.8c0.2-0.7,0.4-1.7,0.7-2.1
				c0.4-0.6-0.1-1.3-0.7-1.1c-0.6,0.2-1.7,1.8-2,4c-0.3,2.2-2.1-0.8-2.8-1.9c-0.7-1.1-2.9-4.4-3.4-4.5c-0.7-0.1-1,0.7-0.3,1.8
				c0.7,1.1,2.6,4.5,2,4.8c-0.6,0.3-3.9-5.3-3.9-5.3s-0.5-1.3-1.2-1c-1.3,0.6,2.8,6.4,3.1,6.9c0.3,0.4-0.4,0.8-0.6,0.3
				c-0.3-0.4-3.2-5.7-4.5-5.1c-1,0.5,3.3,4.7,3.3,6.2c0,1.4-2.9-3.5-3.8-3c-0.3,0.2-0.6,0.4,1.5,3c2.1,2.7,9.1,9,9.1,9l4.6-4.6"/>
			<g class="st26">
				<ellipse class="st27" cx="-226.1" cy="62.7" rx="1.3" ry="0.2"/>
			</g>
			<g class="st26">
				
					<ellipse transform="matrix(3.298094e-02 -0.9995 0.9995 3.298094e-02 -282.3392 -164.2569)" class="st27" cx="-226.1" cy="63.8" rx="0.2" ry="1"/>
			</g>
			<path class="st22" d="M-198.6,53.2l-39-0.1c0,0,2.5-8.8,16-8.3C-208.2,45.2-205.3,42.5-198.6,53.2z"/>
			<g class="st26">
				<path class="st28" d="M-228.6,24.5c0.1-0.4,3.8,0,3.8,0l1.6,21.3c-2.6,1.4-6.1,3.3-9,3c-0.5-2.1-1-4.4,0.1-6.2
					c0.5-0.9,1.4-1.6,1.8-2.5c0.5-1.2,0.3-2.6,0-4c-0.2-1.1-0.4-2.2-0.3-3.3C-230.3,30.1-227.9,27.3-228.6,24.5"/>
				<path class="st29" d="M-223.5,46.1c0.2-1.1-0.2-5.5-0.2-5.5s-4.1-0.4-4.3-4.5c-0.2-4.1,0-13.4,0-13.4l7.4-3.6l8.1,6.2l-1.2,20.3
					L-223.5,46.1z"/>
				<path class="st28" d="M-213.2,28.4c0,0-6.6-0.6-7.8-6.7l-7.2,6.7c0,0-2.2-4.5,1.8-8.7c4-4.2,6.7-3.3,8.3-3.3
					c1.5,0,8.8,1.6,11,10c0.2,0.6,0.3,2.1,0.4,2.8L-213.2,28.4z"/>
				<g>
					<ellipse class="st27" cx="-226.8" cy="29.5" rx="0.5" ry="0.5"/>
					<g>
						<path class="st27" d="M-227.8,29c0.1,0.1,0.4-0.3,1-0.3c0.6,0,1,0.2,1,0.2c0,0,0-0.2-0.2-0.3c-0.2-0.1-0.5-0.2-0.8-0.2
							c-0.3,0-0.6,0.2-0.8,0.3C-227.8,28.8-227.8,28.9-227.8,29z"/>
					</g>
				</g>
				<g>
					<ellipse class="st27" cx="-220.8" cy="29.5" rx="0.5" ry="0.5"/>
					<g>
						<path class="st27" d="M-221.6,29c0.1,0.1,0.4-0.3,1-0.3c0.6,0,1,0.2,1,0.2c0,0,0-0.2-0.2-0.3c-0.2-0.1-0.5-0.2-0.8-0.2
							c-0.3,0-0.6,0.2-0.8,0.3C-221.6,28.8-221.7,28.9-221.6,29z"/>
					</g>
				</g>
				<g>
					<path class="st27" d="M-223.6,33.7c0,0-0.3-0.1-0.9-0.1c-0.1,0-0.3,0-0.3-0.1c0-0.1,0-0.3,0.1-0.5c0.1-0.4,0.2-0.8,0.4-1.2
						c0.3-0.8,0.5-1.6,0.6-2.1c0.2-0.5,0.2-0.9,0.2-0.9c0,0-0.2,0.3-0.3,0.9c-0.2,0.5-0.4,1.3-0.7,2.1c-0.1,0.4-0.3,0.8-0.4,1.2
						c0,0.2-0.1,0.4-0.1,0.6c0,0.1,0.1,0.2,0.2,0.2c0.1,0,0.2,0,0.2,0C-224,33.7-223.6,33.7-223.6,33.7z"/>
				</g>
				<g class="st30">
					<path class="st31" d="M-221,33.9c0,0.5,0.7,0.8,1.6,0.8c0.9,0,1.6-0.3,1.6-0.7c0-0.5-0.7-0.9-1.6-0.9
						C-220.3,33.1-221,33.5-221,33.9z"/>
				</g>
				<path class="st32" d="M-221.8,34.2c0.6-0.4-1.6,0.9-2.7,0.9c0,0,0.7,1,1.8,0.5C-221.5,35.1-221.8,34.2-221.8,34.2z"/>
				<path class="st31" d="M-223.8,40.6c0,0,2.7,0,5.3-1.8c0,0-1.2,3-5.2,2.8L-223.8,40.6z"/>
				<path class="st28" d="M-220.8,21.2c0,0-1.5,2.9-0.8,5l-6.5,1.7C-228.1,27.9-229.6,19.7-220.8,21.2z"/>
				<path class="st28" d="M-206.8,28.7c0.7,5.2,1.1,10.5,1.1,15.8c-2.7,1-5.7,1.5-8.6,1.5c-0.5,0-1,0-1.4-0.3c-0.8-0.4-1-1.4-1-2.3
					c0.1-2.1,1.1-4,1.3-6.1c0.2-2.1-0.6-4.2-1.2-6.2c-0.6-2-1-4.2-0.3-6.2L-206.8,28.7z"/>
			</g>
			<g class="st26">
				<path class="st20" d="M-208.2,45.2c0,0-0.1-0.5-0.4-1.3c-0.2-0.8-0.6-2-0.4-3.5c0.1-0.7,0.3-1.5,0.5-2.4
					c0.2-0.9,0.5-1.8,0.5-2.8c0-0.5-0.1-1-0.3-1.6c-0.2-0.5-0.5-1-0.8-1.4c-0.7-0.9-1.6-1.5-2.3-2.4c-0.3-0.4-0.6-0.9-0.7-1.4
					c-0.1-0.5,0-1.1,0.1-1.6c0.1-0.5,0.2-1.1,0.2-1.6c0-0.5-0.1-1.1-0.3-1.6c-0.4-1-1.1-1.7-1.8-2.2c-0.7-0.6-1.4-1-2-1.4
					c-1.2-0.8-2.1-1.7-2.5-2.4c-0.4-0.7-0.4-1.2-0.4-1.2c0,0,0,0.1,0,0.3c0,0.2,0.1,0.6,0.3,0.9c0.4,0.8,1.2,1.7,2.5,2.6
					c0.6,0.4,1.3,0.9,2,1.4c0.7,0.6,1.3,1.2,1.7,2.1c0.2,0.4,0.3,0.9,0.2,1.4c0,0.5-0.1,1-0.2,1.6c-0.1,0.5-0.2,1.1-0.1,1.7
					c0.1,0.6,0.4,1.1,0.7,1.6c0.7,0.9,1.6,1.6,2.3,2.4c0.3,0.4,0.6,0.8,0.8,1.3c0.2,0.5,0.2,1,0.3,1.4c0,1-0.2,1.9-0.4,2.7
					c-0.2,0.9-0.4,1.7-0.5,2.4c-0.1,0.8,0,1.5,0.1,2.1c0.1,0.6,0.3,1.1,0.4,1.5c0.1,0.4,0.3,0.7,0.4,0.9
					C-208.2,45.1-208.2,45.2-208.2,45.2z"/>
			</g>
			<g class="st26">
				<path class="st20" d="M-220.3,16.6c0,0-0.1,0.1-0.1,0.3c-0.1,0.2-0.2,0.5-0.2,0.9c-0.1,0.4-0.2,0.9-0.1,1.5
					c0,0.6,0.3,1.3,0.9,1.9c0.5,0.6,1.3,1,2,1.5c0.4,0.2,0.7,0.5,1,0.8c0.3,0.3,0.5,0.7,0.6,1.2c0.2,0.9,0.1,2,0,3
					c0,0.5,0,1.1,0.1,1.7c0.1,0.6,0.4,1.1,0.7,1.6c0.6,1,1.4,1.8,1.9,2.7c0.5,0.9,0.7,1.9,0.6,2.9c0,1-0.2,1.9-0.4,2.8
					c-0.2,0.9-0.3,1.7-0.4,2.4c-0.1,1.5,0.3,2.8,0.7,3.5c0.2,0.4,0.5,0.6,0.6,0.7c0.2,0.1,0.3,0.2,0.3,0.2c0,0-0.4-0.3-0.8-1
					c-0.4-0.7-0.8-1.9-0.6-3.4c0.1-0.7,0.2-1.5,0.4-2.4c0.2-0.9,0.4-1.8,0.4-2.8c0-1-0.1-2.1-0.6-3.1c-0.5-1-1.3-1.8-1.9-2.7
					c-0.3-0.5-0.6-1-0.7-1.5c-0.1-0.5-0.1-1.1-0.1-1.6c0-1.1,0.2-2.1-0.1-3.2c-0.1-0.5-0.4-1-0.7-1.3c-0.3-0.4-0.7-0.6-1.1-0.9
					c-0.7-0.5-1.5-0.9-2-1.4c-0.5-0.5-0.8-1.1-0.8-1.7c-0.1-0.6,0-1.1,0-1.5C-220.4,17-220.2,16.6-220.3,16.6z"/>
			</g>
			<g class="st26">
				<path class="st20" d="M-224,26.7c0.1,0-0.4-0.6-0.6-1.6c-0.2-1-0.2-2.5,0.4-3.9c0.6-1.4,1.6-2.6,2.2-3.4
					c0.7-0.8,1.1-1.3,1.1-1.3c0,0-0.5,0.4-1.3,1.1c-0.7,0.8-1.7,1.9-2.4,3.4c-0.7,1.5-0.7,3.1-0.3,4.1c0.2,0.5,0.4,0.9,0.5,1.1
					C-224.1,26.6-224,26.7-224,26.7z"/>
			</g>
			<g class="st26">
				<path class="st20" d="M-227.8,27.6c0.1,0-0.4-0.8-0.4-2.1c0-0.7,0.1-1.4,0.4-2.3c0.3-0.8,0.8-1.6,1.4-2.4c0.6-0.8,1.3-1.4,2-2
					c0.7-0.5,1.3-1,1.9-1.4c1.1-0.7,1.9-0.8,1.9-0.9c0,0-0.2,0-0.6,0c-0.4,0.1-0.9,0.3-1.5,0.6c-0.6,0.3-1.2,0.8-2,1.3
					c-0.7,0.5-1.4,1.2-2.1,2c-0.7,0.8-1.2,1.7-1.4,2.6c-0.3,0.9-0.4,1.7-0.3,2.4c0.1,0.7,0.2,1.2,0.4,1.6
					C-227.9,27.4-227.8,27.6-227.8,27.6z"/>
			</g>
			<g class="st26">
				<path class="st20" d="M-228.9,47.6c0,0-0.2-0.2-0.5-0.5c-0.3-0.4-0.5-1-0.5-1.8c0-0.4,0.1-0.9,0.2-1.3c0.1-0.5,0.4-0.9,0.6-1.4
					c0.2-0.5,0.5-1,0.7-1.6c0.2-0.6,0.3-1.2,0.3-1.9c0-1.3-0.4-2.5-0.6-3.6c-0.3-1.1-0.4-2-0.4-2.9c0-0.8,0.2-1.5,0.4-1.9
					c0.2-0.4,0.4-0.6,0.3-0.6c0,0-0.2,0.2-0.5,0.6c-0.2,0.4-0.5,1.1-0.5,1.9c-0.1,0.9,0.1,1.9,0.4,3c0.3,1.1,0.6,2.3,0.6,3.5
					c0,1.3-0.5,2.3-1,3.4c-0.2,0.5-0.4,1-0.6,1.5c-0.1,0.5-0.2,1-0.2,1.4c0,0.9,0.3,1.5,0.7,1.9C-229.2,47.5-228.9,47.6-228.9,47.6z
					"/>
			</g>
			<g class="st26">
				<path class="st20" d="M-205.7,44.3c0,0-0.1-0.1-0.2-0.3c-0.1-0.2-0.2-0.5-0.2-1c0-0.4,0.1-1,0.4-1.5c0.3-0.6,0.7-1.2,1.1-1.9
					c0.4-0.7,0.7-1.6,0.9-2.5c0.2-1,0.2-2-0.2-3.1c-0.2-0.5-0.4-1.1-0.7-1.5c-0.3-0.5-0.7-0.9-1.2-1.3c-0.4-0.4-0.9-0.8-1.3-1.2
					c-0.4-0.4-0.7-1-0.8-1.5c-0.3-1.2-0.3-2.4-0.3-3.6c0-1.2-0.2-2.4-0.8-3.3c-0.6-1-1.5-1.6-2.3-2c-0.9-0.5-1.7-0.7-2.5-1
					c-1.6-0.5-2.8-0.8-3.6-1.3c-0.8-0.4-1.2-0.7-1.2-0.7c0,0,0.1,0.1,0.3,0.2c0.2,0.1,0.5,0.4,0.9,0.6c0.8,0.5,2.1,0.9,3.6,1.4
					c0.8,0.3,1.6,0.6,2.4,1c0.8,0.5,1.6,1.1,2.2,1.9c0.6,0.9,0.7,2,0.8,3.2c0.1,1.2,0,2.4,0.3,3.6c0.2,0.6,0.5,1.2,0.9,1.7
					c0.4,0.5,0.9,0.8,1.3,1.2c0.4,0.4,0.8,0.8,1.1,1.2c0.3,0.5,0.5,0.9,0.7,1.4c0.3,1,0.3,2,0.2,2.9c-0.1,0.9-0.5,1.8-0.8,2.5
					c-0.4,0.7-0.8,1.3-1,1.9c-0.3,0.6-0.4,1.2-0.4,1.6c0,0.5,0.1,0.8,0.3,1C-205.8,44.2-205.7,44.3-205.7,44.3z"/>
			</g>
			
				<linearGradient id="SVGID_1_" gradientUnits="userSpaceOnUse" x1="-342.4576" y1="88.2368" x2="-343.5141" y2="44.924" gradientTransform="matrix(-0.9935 0 0 1 -561.3927 -1.116263e-05)">
				<stop  offset="0" style="stop-color:#FFFFFF"/>
				<stop  offset="0.2316" style="stop-color:#FFFFFF;stop-opacity:0.7684"/>
				<stop  offset="1" style="stop-color:#FFFFFF;stop-opacity:0"/>
			</linearGradient>
			<polygon class="st33" points="-202.5,68.3 -195.4,40.2 -244.5,38.8 -237.4,70.3 			"/>
			<g class="st26">
				<path class="st34" d="M-202.7,68.6l-4.6,22.6c0,0-27.4-0.8-27.7-0.9c-0.3-0.1-2.9-21.8-2.9-21.8H-202.7z"/>
				<ellipse class="st32" cx="-221.2" cy="79.3" rx="1.6" ry="2"/>
			</g>
			<g class="st26">
				<path class="st35" d="M-244.8,103.2c0,0,0.1,0,0.3-0.1c0.2-0.1,0.6-0.1,1-0.2c0.8-0.2,2.1-0.5,3.6-1c3-0.8,7.1-2.1,11.6-3.5
					c4.5-1.5,8.6-2.9,11.5-4c1.5-0.6,2.6-1,3.4-1.3c0.4-0.2,0.7-0.3,0.9-0.4c0.2-0.1,0.3-0.1,0.3-0.2c0,0-0.1,0-0.3,0.1
					c-0.2,0.1-0.5,0.2-0.9,0.3c-0.8,0.3-2,0.7-3.5,1.2c-2.9,1-7,2.4-11.5,3.9c-4.5,1.5-8.6,2.7-11.6,3.6c-1.5,0.5-2.7,0.8-3.5,1.1
					c-0.4,0.1-0.7,0.2-1,0.3C-244.7,103.1-244.8,103.2-244.8,103.2z"/>
			</g>
			<g class="st26">
				
					<ellipse transform="matrix(0.2885 -0.9575 0.9575 0.2885 -249.3334 -149.8094)" class="st35" cx="-225.5" cy="92.9" rx="0.2" ry="6.7"/>
			</g>
			<g class="st26">
				<path class="st35" d="M-210.7,92.2c0,0,0.3,0,0.8-0.1c0.5-0.1,1.2-0.3,2-0.6c1.7-0.5,4-1.3,6.6-2c2.6-0.7,5-0.9,6.8-0.8
					c1.8,0.1,2.8,0.4,2.8,0.4c0,0-0.2-0.1-0.7-0.3c-0.5-0.1-1.2-0.3-2.1-0.4c-1.8-0.2-4.3-0.1-6.9,0.7c-2.6,0.7-4.9,1.6-6.6,2.2
					c-0.8,0.3-1.5,0.5-2,0.7C-210.4,92.1-210.7,92.2-210.7,92.2z"/>
			</g>
			<polygon class="st36" points="-193.3,103.2 -212.5,111.2 -218.2,109.6 			"/>
			<polygon class="st36" points="-209.2,91.2 -220,93.8 -234.5,90.4 			"/>
		</g>
	</g>
	<g>
		<rect x="-336.7" y="135.9" class="st37" width="150" height="107.7"/>
		<path class="st38" d="M-304,170.5h-14.6c-2.2,0-3.9,1.8-3.9,3.9v0c0,2.2,1.8,3.9,3.9,3.9h14.6c2.2,0,3.9-1.8,3.9-3.9v0
			C-300,172.2-301.8,170.5-304,170.5z"/>
		<g>
			<rect x="-324.2" y="196.4" class="st39" width="31.9" height="36.3"/>
			<circle class="st37" cx="-308.2" cy="210" r="8.3"/>
		</g>
		<g>
			<rect x="-277.6" y="196.4" class="st39" width="31.9" height="36.3"/>
			<circle class="st37" cx="-261.7" cy="210" r="8.3"/>
		</g>
		<g>
			<rect x="-231.1" y="196.4" class="st39" width="31.9" height="36.3"/>
			<circle class="st37" cx="-215.1" cy="210" r="8.3"/>
		</g>
		<rect x="-322.5" y="147.3" class="st39" width="57.8" height="4.6"/>
		<rect x="-322.5" y="157.3" class="st39" width="39.1" height="4.6"/>
		<rect x="-248.4" y="145.9" class="st37" width="49.5" height="32.6"/>
		<rect x="-316.4" y="173.5" class="st37" width="10.3" height="1.9"/>
		<circle class="st38" cx="-225.1" cy="159.7" r="7.8"/>
		<polygon class="st39" points="-234,153.7 -248.4,178.5 -220.2,178.5 		"/>
		<polygon class="st39" points="-212.7,161.1 -227,178.5 -198.9,178.5 		"/>
	</g>
	<g>
		<g>
			<path class="st40" d="M-187.7,56.7l-8.4,3.4c1,9.1-16.8,27.7-16.8,27.7l4.7,0.3C-208.2,88.2-177.8,68.9-187.7,56.7z"/>
			<ellipse class="st38" cx="-186.8" cy="1.7" rx="6.6" ry="7.8"/>
			
				<ellipse transform="matrix(0.3236 -0.9462 0.9462 0.3236 -135.6762 -172.6539)" class="st41" cx="-188.6" cy="8.6" rx="4.3" ry="5.1"/>
			<path class="st38" d="M-167.6,100.5l-39.8-6.2c5.4-12,15.6-12,10.2-36.6c-4.1-18.6,12.6-24,19.4-17.9c0.8,0.7,1.6,1.6,2.4,2.7
				c0,0,0,0.1,0.1,0.1c4.4,5.8,8.3,16.4,7.8,31c-0.2,4.5-0.1,7.7,0.1,10.4C-167.1,89.7-166.6,93-167.6,100.5z"/>
			<path class="st42" d="M-168.6,107.4c0.6-1.6,1.7-4.7,1.4-10l-40.1-3.1c-0.3,0.8-0.5,1.6-0.7,2.4c-5.4,0.1-10.6,0.5-14.2,1.6
				c-19.8,6.1-23.1,40-23.1,40l3.6,1.4c0,0,5.7-16.7,15-24.1c-0.1,13.3,16.1,34.6,16.1,34.6l4.4-1.1c0,0-15.3-27.5-2.5-30.7
				c9.1-2.3,13.2-2.6,21.2-2.5c3.7,0.4,7.5,0.5,11.4,0.1C-172,115.1-169.7,110.3-168.6,107.4z"/>
			<path class="st40" d="M-167.4,84.1c-7.2,7-18.7,11.9-18.7,11.9l-6.4-3.1c0,0,25.4-6.9,21.1-17.5c-3.6-8.8-8.9-22.2-10.1-25.8
				c-1-2.9-0.7-14.3,5.7-7.5c0.1,0.1,0.3,0.3,0.4,0.5c0,0,0,0.1,0.1,0.1c4.4,5.8,8.3,16.4,7.8,31C-167.6,78.1-167.6,81.4-167.4,84.1
				z"/>
			<path class="st38" d="M-175.7,42c4.6,4.3,9.7,19.4,13.2,26.9C-156,83.2-188,94.3-188,94.3l-4.5-1.5c0,0,26.2-12.5,20.9-22.6
				c-4.2-8.1-7.1-12.4-12-22.1C-186.6,42.1-184,34.3-175.7,42z"/>
			<path class="st43" d="M-191,92.5c-2.8-1.2-6.1,0.1-6.6,1.8c-0.5,1.7,1.3,2.6,6.2,3c4.8,0.5,5.4-2.7,5.4-2.7L-191,92.5z"/>
			<path class="st43" d="M-209.9,146.7l-6.1,7.2c-0.7,0.8,0.2,1.8,1.2,1.5l9.1-3.6c0.8-0.3,1.1-1.2,0.6-1.9l-2.3-3
				C-208,145.9-209.3,145.9-209.9,146.7z"/>
			<path class="st43" d="M-242.2,137.1l-11.1-5.4c-1-0.4-1.7,0.9-1,1.7l8.7,9.4c0.6,0.7,1.6,0.6,2-0.1l2.1-3.2
				C-240.9,138.7-241.3,137.4-242.2,137.1z"/>
			<path class="st44" d="M-185.7,22.3c1.2,6.1,1.7,12.8,4.2,17.5c0.6,1.2,0.5,2.5-0.5,3.2c-1.5,1-4.2,1.9-7.8,0
				c-1.3-0.7-2-2.1-1.8-3.3c0.6-2.7,1.3-7.7,0.5-11.9C-192.4,21.8-186.7,17.4-185.7,22.3z"/>
			<path class="st43" d="M-200.1,29.2c5.7,11,11.5,12.1,15.4-4.8S-210.9,8.4-200.1,29.2z"/>
			<path class="st38" d="M-190.2,6.9c-2.7,0-5.1,1.4-6.7,3.7c-1.8,0.7-3.7,1.7-5.6,3c-4.3,3.1-11,14.6-9.6,14.9
				c4.9,1.2,12.3,0.5,18-2.1c1.2,0.7,2.5,1.1,3.9,1.1c4.8,0,8.8-4.6,8.8-10.3S-185.4,6.9-190.2,6.9z"/>
			<path class="st43" d="M-187.2,25.3c-0.8,3,0.3,4,4.4,1.1C-178.7,23.6-185.7,19.6-187.2,25.3z"/>
		</g>
		<path class="st45" d="M-182.6,99.5h-30.8c-0.6,0-1-0.5-1-1V98c0-0.6,0.5-1,1-1h30.8c0.6,0,1,0.5,1,1v0.5
			C-181.5,99.1-182,99.5-182.6,99.5z"/>
		<path class="st46" d="M-195.9,99.5h-27.6c-1.5,0-2.9-1.2-3.2-2.6l-4.4-20.6c-0.3-1.5,0.6-2.6,2.1-2.6h27.6c1.5,0,2.9,1.2,3.2,2.6
			l4.4,20.6C-193.5,98.3-194.4,99.5-195.9,99.5z"/>
	</g>
	
		<text transform="matrix(0.9816 0.1909 -0.1909 0.9816 -308.2414 72.4511)" class="st2" style="font-family:'Verdana-Bold'; font-size:15px;">HTML</text>
	
		<text transform="matrix(0.9452 -0.3266 0.3266 0.9452 -502.9544 38.8174)" class="st2" style="font-family:'Verdana-Bold'; font-size:15px;">CSS</text>
</g>
</svg>
