<?xml version="1.0" encoding="utf-8"?>
<!-- Generator: Adobe Illustrator 23.0.1, SVG Export Plug-In . SVG Version: 6.00 Build 0)  -->
<svg version="1.1" id="Capa_1" xmlns="http://www.w3.org/2000/svg" xmlns:xlink="http://www.w3.org/1999/xlink" x="0px" y="0px"
	 viewBox="0 0 254.1 546.8" style="enable-background:new 0 0 254.1 546.8;" xml:space="preserve">
<style type="text/css">
	.st0{fill:#B1CEFF;}
</style>
<g>
	<g>
		<path class="st0" d="M235.8,0h-57C135.3,0,104,10.3,84.9,31c-19,20.7-28.5,51.2-28.5,91.4v38.4c0,10.1-8.2,18.4-18.4,18.4H18.4
			C8.2,179.2,0,187.4,0,197.5V255c0,10.1,8.2,18.4,18.4,18.4H38c10.1,0,18.4,8.2,18.4,18.4v236.7c0,10.1,8.2,18.4,18.4,18.4h76.4
			c10.1,0,18.4-8.2,18.4-18.4V291.7c0-10.1,8.2-18.4,18.4-18.4h38.6c10.1,0,19.2-8.2,20.3-18.3l6.1-57.7
			c1.1-10.1-6.3-18.3-16.4-18.3h-48.5c-10.1,0-18.4-8.2-18.4-18.4v-28.8c0-7.1,0.3-12.6,1-16.4c0.7-3.9,2.2-7.7,4.5-11.4
			c2.3-3.8,6.1-6.4,11.3-7.8c5.2-1.4,12.1-2.2,20.7-2.2h28.8c10.1,0,18.4-8.2,18.4-18.4V18.4C254.1,8.2,245.9,0,235.8,0z"/>
	</g>
</g>
</svg>
