<?xml version="1.0" encoding="utf-8"?>
<!-- Generator: Adobe Illustrator 21.0.0, SVG Export Plug-In . SVG Version: 6.00 Build 0)  -->
<svg version="1.1" id="Слой_1" xmlns="http://www.w3.org/2000/svg" xmlns:xlink="http://www.w3.org/1999/xlink" x="0px" y="0px"
	 viewBox="0 0 256 566" style="enable-background:new 0 0 256 566;" xml:space="preserve">
<style type="text/css">
	.st0{fill:#FFFFFF;}
</style>
<g>
	<path class="st0" d="M197.3,548.7l5.4-90.4l15-25.6c0,0-34.1,14-91.2,14c-57.1,0-90.7-13.7-90.7-13.7l16.8,27.9l5.9,87.8
		c0,9.4,31.1,17.1,69.4,17.1C166.2,565.8,197.3,558.2,197.3,548.7"/>
	<path class="st0" d="M180.2,126.5l11.4-45l63.1-66.4L238,0.9l-66.8,70.7L158,125.4c-9.6-0.3-19.6-0.5-29.9-0.5
		c-70.3,0-127.4,8-127.4,17.9c0,9.9,57,17.9,127.4,17.9c70.3,0,127.4-8,127.4-17.9C255.5,135.5,224.6,129.3,180.2,126.5"/>
	<path class="st0" d="M173.5,151.7c0,0-2.5,0.6-9.7,0.6c-7.3,0-12.4,0-14.5-1.9c-0.6-0.5-0.9-1.5-0.9-2.2c0-1.3,0.9-2,2.1-2.5
		l1.1,1.7c-0.5,0.2-0.8,0.4-0.8,0.6c0,1,7.4,1.6,13.1,1.6c5.7-0.1,12.5-0.5,12.6-1.5c0-0.3-0.5-0.6-1.4-0.8l1.1-1.7
		c1.5,0.5,2.8,1.3,2.8,2.9C179,151,175.7,151.4,173.5,151.7"/>
	<path class="st0" d="M254.5,15.2c1.6-1.8-0.8-6.5-5.4-10.5c-4.6-3.9-9.5-5.7-11.1-3.8c-1.6,1.8,0.8,6.5,5.4,10.5
		C247.9,15.3,252.9,17,254.5,15.2"/>
	<path class="st0" d="M194.2,327.9c-1.5-14.4,31.5-35.2,23-35.9c-18.2,1-27.3,21.3-36.4,42.6c-3.4,7.8-14.8,41-22.4,36.9
		c-7.5-4.1,9.8-31.4,14.6-47.6c-5.6,4.1-26.1,20-31.4,5.1c-8.5,7.2-26.7,11.1-24.6-7.8c-4.5,8-14.7,19.2-26.9,14.5
		c-16-6.1,9.3-57.1,15.6-54.5c6.3,2.6-1.3,14.2-3.2,18.7c-4.3,9.9-9.4,22.4-6,24.9c5.8,4.4,21.4-16.5,21.7-17
		c2.9-3.9,11.3-29.2,18-26.3c6.7,2.9-16.8,36.3-8,42.9c1.8,1.3,9-0.8,13.4-5.6c2.9-3.1,1.9-9.9,11.4-32.6
		c9.5-22.7,18-50.9,24.5-48.8c6.5,2.1,1.1,16.6-1.2,22c-11,25.4-30,67.2-21,64.1c9-3.2,13.6-3.4,22.4-13.6
		c8.8-10.3,8.4-27.2,14.2-26.8c5.8,0.4,4.9,5.8,3.4,9.9c5.8-6.6,27.3-20.4,32.4-6.7c6.2,16.2-30.8,39.7-21.6,38.5
		c9-1.2,23.5-10.4,29.7-18.7l17.1-153.6c0,0-17.2,14.2-126.6,14.2c-109.4,0-124.8-13.9-124.8-13.9l14.5,140.2
		c7.7-21.9,26.1-66.3,55-64.8c13.1,0.7,30.7,26,15.7,26.9c-6.4,0.4-7-12.6-14.5-14.5c-5.4-1.4-13,3-17.9,7.8
		c-9.8,9.6-30.7,47.2-28,66c3.5,23.9,33-8.3,38-17.9c3.5-6.7,5.9-26.7,13.6-24.6c7.7,2.1-0.7,22.7-6.2,41
		c-6.3,20.5-9.6,42.1-17.4,39.6c-7.9-2.5,4.9-28.9,4.5-33.6c-7.4,6.8-21,24-38.4,15.5l9,87.1c0,0,24,19,96.3,19s97.2-18.7,97.2-18.7
		l11.2-100.9C225.2,329.9,196.1,345.8,194.2,327.9"/>
</g>
</svg>
