<?xml version="1.0" encoding="utf-8"?>
<!-- Generator: Adobe Illustrator 23.0.1, SVG Export Plug-In . SVG Version: 6.00 Build 0)  -->
<svg version="1.1" id="Capa_1" xmlns="http://www.w3.org/2000/svg" xmlns:xlink="http://www.w3.org/1999/xlink" x="0px" y="0px"
	 viewBox="0 0 552.8 504.9" style="enable-background:new 0 0 552.8 504.9;" xml:space="preserve">
<style type="text/css">
	.st0{fill:#B1CEFF;}
</style>
<g>
	<g>
		<path class="st0" d="M18,504.9h71.9c9.9,0,17.9-8,17.9-18V172.9c0-9.9-8-17.9-17.9-17.9H18c-9.9,0-18,8-18,17.9V487
			C0,496.9,8,504.9,18,504.9z"/>
		<path class="st0" d="M18,99.7h71.9c9.9,0,17.9-8,17.9-17.9V18c0-9.9-8-18-17.9-18H18C8,0,0,8,0,18v63.8C0,91.7,8,99.7,18,99.7z"/>
		<path class="st0" d="M525.7,191.4c-10.1-13.3-25-24.2-44.7-32.8c-19.7-8.6-41.4-12.8-65.2-12.8c-48.3,0-89.2,18.4-122.7,55.3
			c-6.7,7.3-11.5,5.7-11.5-4.2v-23.9c0-9.9-8-17.9-18-17.9h-64.2c-9.9,0-17.9,8-17.9,17.9V487c0,9.9,8,18,17.9,18h71.9
			c9.9,0,18-8,18-18V377.8c0-45.5,2.7-76.7,8.2-93.6c5.5-16.9,15.7-30.4,30.5-40.6c14.8-10.2,31.6-15.3,50.2-15.3
			c14.6,0,27,3.6,37.4,10.7c10.4,7.2,17.8,17.2,22.4,30.1c4.6,12.9,6.9,41.4,6.9,85.3V487c0,9.9,8,18,17.9,18h71.9
			c9.9,0,17.9-8,17.9-18V309.1c0-31.4-2-55.6-5.9-72.5S535.8,204.7,525.7,191.4z"/>
	</g>
</g>
</svg>
