<?xml version="1.0" encoding="utf-8"?>
<!-- Generator: Adobe Illustrator 21.0.0, SVG Export Plug-In . SVG Version: 6.00 Build 0)  -->
<svg version="1.1" xmlns="http://www.w3.org/2000/svg" xmlns:xlink="http://www.w3.org/1999/xlink" x="0px" y="0px"
	 viewBox="0 0 484.9 429" style="enable-background:new 0 0 484.9 429;" xml:space="preserve">
<style type="text/css">
	.st0{fill:#ECF3FF;}
	.st1{opacity:0.5;}
	.st2{fill:#84B4FE;}
	.st3{fill:#C1DDF7;}
	.st4{fill:#71ADDB;}
	.st5{fill:#BED1F1;}
	.st6{fill:none;stroke:#ECF3FF;stroke-linecap:round;stroke-linejoin:round;stroke-miterlimit:10;}
	.st7{opacity:0.75;fill:#BED1F1;}
	.st8{fill:#C8DBFB;}
	.st9{opacity:0.75;fill:#15CCBE;}
	.st10{fill:#214A81;}
	.st11{fill:#D7E8F7;}
	.st12{fill:#FFFFFF;}
	.st13{fill:#FAFAFB;}
	.st14{fill:#183963;}
	.st15{fill:#F5D55C;}
	.st16{fill:#5CA9AD;}
	.st17{fill:#2A496F;}
	.st18{fill:#F7E02C;}
	.st19{fill:#A1BC31;}
	.st20{fill:#EF6C74;}
	.st21{display:none;}
	.st22{display:inline;fill:#F6BA99;}
	.st23{display:inline;fill:#154593;}
	.st24{display:inline;fill:#153B72;}
	.st25{display:inline;fill:#F17F60;}
	.st26{display:inline;}
	.st27{fill:#00143A;}
	.st28{fill:#B87333;}
	.st29{fill:#F6BA99;}
	.st30{opacity:0.33;}
	.st31{fill:#F2957E;}
	.st32{fill:#F3F0EB;}
	.st33{display:inline;opacity:0.34;fill:url(#SVGID_1_);}
	.st34{fill:#B4CCE9;}
	.st35{fill:#102D51;}
	.st36{display:inline;opacity:0.36;fill:#102D51;}
	.st37{fill:#FBFEFF;}
	.st38{fill:#EDBE48;}
	.st39{fill:#DCDEEF;}
	.st40{fill:#CE9F36;}
	.st41{fill:#EA6F49;}
	.st42{fill:#263A49;}
	.st43{fill:#F99677;}
	.st44{fill:#DD7052;}
	.st45{fill:#D8CBD5;}
	.st46{fill:#E5E5E5;}
	.st47{font-family:'Verdana-Bold';}
	.st48{font-size:15px;}
</style>
<g id="BACKGROUND">
	<g>
		<path class="st0" d="M99.7,75.4c15.6,1,22.2-9.6,29.5-23.3c20.1-37.5,64.8-33.9,79.8-10.8c10.6,16.4,33.6,13,52.1,6.6
			c18.3-6.3,49.4-12.4,74.1-4.8c21.6,6.6,30.5,30.3,50.2,28.8c43-3.2,64.7,39.3,56.9,57.8c-5.1,12.1-7.6,25.6-3.5,38.1
			c4.6,13.7,15,24.6,23.4,36.3c8.4,11.8,15.2,26.5,11,40.3c-3.6,11.8-14.2,20-20.9,30.5c-20.6,32.5-0.2,82.2-27.6,109.3
			c-19.6,19.4-51.6,14.9-79.1,18.6c-22.9,3.1-44.4,12.7-67.2,16.5c-46.1,7.6-92.8-9.2-139.5-9.6c-16.5-0.2-33.3,1.7-49.2-2.4
			c-21.3-5.4-39.4-21.8-46.8-42.3c-10.2-28.3-0.5-61.1-12.1-88.9c-9.4-22.6-32.3-41.1-30.9-65.5c0.9-15.2,11.3-27.9,18.4-41.4
			C29.1,149,15.1,69.7,99.7,75.4z M235.9,38.6c-4.1,0-7.4,2.5-7.4,5.7s3.3,5.4,7.4,5.7c13.3,0.9,13.3-4.5,13.3-7.7
			C249.2,37.3,240,38.6,235.9,38.6z M371.5,62.9c3.6,2.9,8.1,4.7,12.8,5c1.2,0.1,2.6,0,3.5-0.8c1.2-1,1.3-3,0.3-4.1
			c-0.7-0.7-1.6-1-2.5-1.4c-1.5-0.6-3-1.5-3.9-2.9c-0.3-0.4-0.5-0.9-0.9-1.1C378.2,56.2,366.8,59,371.5,62.9z M394.2,67.9
			c1.2,0.4,2.5,0,3.6-0.4c0.8-0.2,1.7-0.8,1.5-1.6c-0.1-0.4-0.4-0.6-0.8-0.8c-1.6-0.8-3.6-1.4-5.1-0.4
			C391.9,65.9,393,67.5,394.2,67.9z M448.5,175.2c0.2,1.8,1.3,3.3,2.4,4.7c2,2.8,4.1,5.6,6.8,7.8c1.1,0.9,2.5,1.7,3.9,1.8
			c1.3,0,2.6-0.6,3.7-1.3c2.6-1.9,4.4-4.9,4.8-8.1c0.5-4.4-1.5-8.7-3.9-12.4c-1.5-2.3-3.2-4.6-5.7-5.9c-4.1-2.1-6.9-0.3-8,3.4
			C451.4,168.5,448.1,171.5,448.5,175.2z M8.1,277.7c-2.2,1.9-0.2,7.5,0.4,11.2c0.2,1.1,0.5,2.3,1.2,3.2c1,1.2,2.6,1.7,4.1,2.1
			c2.7,0.8,5.9,1.4,7.9-0.4c1.5-1.4,1.7-3.6,1.7-5.7c0-1.9-0.1-3.7-0.3-5.6c-0.1-0.9-0.2-1.8-0.7-2.6c-0.6-1-1.7-1.5-2.7-2
			C15.8,276.5,10.3,275.8,8.1,277.7z M141.3,418.5c-1.3,0.3-2.8,0.8-3,2.1c-0.2,1.1,0.7,2,1.6,2.6c7.1,5.3,16.7,5.6,25.6,5.8
			c1,0,2.1,0,3.1-0.4c1.9-0.8,2.8-3.3,1.9-5.2c-0.3-0.7-0.8-1.2-1.4-1.8C162,414.7,150.2,416.7,141.3,418.5z M319,414.9
			c-8,5.9,0.1,11.1,10.2,7.2c5.5-2.1,10.7-4.2,16.3-5.6c1.8-0.5,12.7-2.8,12.7-5.3c0-6.5-12.3-5-20.1-3.9
			C332,408.3,325.6,410.1,319,414.9z"/>
	</g>
	<g>
		<path class="st0" d="M459.5,37.8l-25.5-8.3c-5.8-1.9-12,1.3-13.8,7l-1.1,3.2l-5.1,1.4c-1.3,0.4-1.7,1.5-0.8,2.6l3.3,4.1l-1.1,3.2
			c-1.9,5.8,1.3,12,7,13.8l25.5,8.3c5.8,1.9,12-1.3,13.8-7l4.7-14.6C468.4,45.9,465.2,39.7,459.5,37.8z"/>
		<g class="st1">
			<path class="st2" d="M455.8,56.9l-6.1-5l0.9-2.8l8.6,7.6l-0.8,2.4L447,60.2l0.9-2.8L455.8,56.9z"/>
			<path class="st2" d="M439.5,44.2c0.1-0.3,0.3-0.5,0.5-0.6c0.2-0.1,0.5-0.1,0.8,0c0.4,0.1,0.6,0.3,0.7,0.6c0.1,0.3,0.1,0.7,0,1.4
				l-1,12.4c-0.1,0.7-0.1,1.1-0.2,1.2c-0.2,0.6-0.6,0.8-1.3,0.5c-0.3-0.1-0.5-0.2-0.6-0.4c-0.1-0.2-0.2-0.4-0.2-0.6c0-0.2,0-0.6,0-1
				l0.9-12.4C439.4,44.8,439.4,44.4,439.5,44.2z"/>
			<path class="st2" d="M421.4,44.4l11.4-1.1l-0.9,2.8l-7.9,0.4l6.1,5l-0.9,2.8l-8.6-7.6L421.4,44.4z"/>
		</g>
	</g>
	<g>
		<path class="st0" d="M257.4,6.2L278,0.3c4.6-1.3,9.5,1.4,10.8,6l0.7,2.6l4,1.3c1,0.3,1.3,1.3,0.6,2.1l-2.7,3.2l0.7,2.6
			c1.3,4.6-1.4,9.5-6,10.8l-20.6,5.8c-4.6,1.3-9.5-1.4-10.8-6l-3.3-11.8C250.1,12.3,252.8,7.5,257.4,6.2z"/>
		<g class="st1">
			<path class="st2" d="M282.1,13.8c-0.3-0.3-0.5-0.6-0.7-1c-0.2-0.4-0.4-1-0.6-1.7c-0.2-0.7-0.4-1.2-0.5-1.4
				c-0.1-0.2-0.2-0.4-0.4-0.4c-0.1-0.1-0.4-0.1-0.7,0c-0.2,0-0.4,0-0.6-0.1c-0.2-0.1-0.3-0.3-0.4-0.6c-0.2-0.6,0.1-1.1,0.9-1.3
				c0.8-0.2,1.4-0.2,2,0.2c0.6,0.3,1,0.8,1.2,1.6c0.4,1.2,0.6,1.9,0.7,2.2c0.1,0.3,0.2,0.6,0.4,0.8c0.1,0.2,0.3,0.4,0.5,0.6
				c0.2,0.1,0.5,0.2,1,0.4c0.4,0.1,0.6,0.4,0.7,0.8c0.1,0.3,0.1,0.5,0,0.6c-0.1,0.2-0.2,0.3-0.4,0.6c-0.2,0.2-0.4,0.5-0.5,0.7
				c-0.1,0.2-0.1,0.5-0.1,0.9c0,0.2,0.1,0.5,0.2,1c0.1,0.5,0.3,1.2,0.5,2c0.1,0.5,0.1,0.9,0,1.4c-0.1,0.4-0.3,0.8-0.6,1.1
				c-0.3,0.3-0.7,0.5-1.2,0.7c-0.8,0.2-1.3,0-1.5-0.6c-0.1-0.3-0.1-0.5,0-0.7c0.1-0.2,0.2-0.4,0.4-0.4c0.2-0.1,0.4-0.2,0.5-0.3
				c0.1-0.1,0.2-0.2,0.2-0.3c0-0.2,0-0.4,0-0.6c0-0.3-0.1-0.7-0.3-1.2c-0.2-0.7-0.3-1.3-0.4-1.8c0-0.5,0-0.9,0.1-1.2
				c0.1-0.4,0.4-0.7,0.7-1C282.7,14.3,282.4,14.1,282.1,13.8z"/>
			<path class="st2" d="M277.5,20.5c-0.3-0.1-0.5-0.4-0.6-0.8c-0.1-0.3-0.1-0.6,0.1-0.9c0.2-0.3,0.4-0.5,0.8-0.6
				c0.3-0.1,0.7-0.1,1,0.1c0.3,0.2,0.5,0.4,0.6,0.7c0.1,0.4,0.1,0.7-0.1,1c-0.2,0.3-0.4,0.5-0.8,0.6
				C278.1,20.7,277.8,20.7,277.5,20.5z"/>
			<path class="st2" d="M272.3,22c-0.3-0.1-0.5-0.4-0.6-0.8c-0.1-0.3-0.1-0.6,0.1-0.9c0.2-0.3,0.4-0.5,0.8-0.6
				c0.3-0.1,0.7-0.1,1,0.1c0.3,0.2,0.5,0.4,0.6,0.7c0.1,0.4,0.1,0.7-0.1,1c-0.2,0.3-0.4,0.5-0.8,0.6C272.9,22.2,272.6,22.1,272.3,22
				z"/>
			<path class="st2" d="M267.2,23.4c-0.3-0.1-0.5-0.4-0.6-0.8c-0.1-0.3-0.1-0.6,0.1-0.9c0.2-0.3,0.4-0.5,0.8-0.6s0.7-0.1,1,0.1
				c0.3,0.2,0.5,0.4,0.6,0.7c0.1,0.4,0.1,0.7-0.1,1c-0.2,0.3-0.4,0.5-0.8,0.6C267.8,23.6,267.5,23.6,267.2,23.4z"/>
			<path class="st2" d="M261.9,21.4c0.3,0.2,0.5,0.6,0.7,1c0.2,0.4,0.4,1,0.6,1.7c0.1,0.5,0.3,0.9,0.3,1.1c0.1,0.3,0.2,0.4,0.3,0.6
				c0.1,0.1,0.2,0.2,0.3,0.2c0.1,0,0.3,0,0.6,0c0.1,0,0.3,0,0.4,0c0.1,0.1,0.2,0.1,0.3,0.3c0.1,0.1,0.2,0.3,0.2,0.5
				c0.1,0.3,0.1,0.6-0.1,0.8c-0.2,0.2-0.4,0.4-0.8,0.5c-0.8,0.2-1.4,0.2-2-0.2c-0.6-0.3-1-0.8-1.2-1.6c-0.2-0.8-0.4-1.4-0.6-1.9
				c-0.2-0.5-0.3-0.9-0.5-1.1c-0.1-0.2-0.3-0.4-0.5-0.6c-0.2-0.1-0.5-0.3-1-0.4c-0.4-0.1-0.6-0.4-0.7-0.8c-0.1-0.3-0.1-0.5,0-0.7
				c0.1-0.2,0.2-0.4,0.4-0.6c0.2-0.2,0.4-0.4,0.5-0.7c0.1-0.2,0.2-0.5,0.1-0.9c0-0.2-0.2-1.2-0.7-3c-0.1-0.5-0.1-0.9,0-1.4
				c0.1-0.4,0.3-0.8,0.6-1.1c0.3-0.3,0.7-0.5,1.2-0.7c0.8-0.2,1.3,0,1.4,0.6c0.1,0.3,0.1,0.5,0,0.7c-0.1,0.2-0.2,0.3-0.4,0.4
				c-0.2,0.1-0.4,0.2-0.5,0.3c-0.1,0.1-0.2,0.2-0.2,0.3c0,0.1,0,0.4,0,0.6c0.1,0.3,0.2,0.7,0.3,1.2c0.1,0.5,0.3,1,0.3,1.4
				c0.1,0.4,0.1,0.8,0,1.1c0,0.3-0.1,0.6-0.2,0.8c-0.1,0.2-0.3,0.5-0.5,0.8C261.3,20.9,261.6,21.1,261.9,21.4z"/>
		</g>
	</g>
	<ellipse class="st0" cx="426.7" cy="413.1" rx="38.6" ry="3.6"/>
	<g>
		<path class="st3" d="M395.5,363.1l6.6,45c0,0,5.2,7,24.9,7s24.9-7,24.9-7l6.6-45H395.5z"/>
		<path class="st4" d="M427,387.6c11.6,0,21.9-1.5,28.4-3.7l2.9-20.1h-62.8l2.9,20.1C405.1,386.1,415.4,387.6,427,387.6z"/>
		<path class="st3" d="M462.8,373.5c0,5.3-16.1,9.5-35.9,9.5c-19.8,0-35.9-4.3-35.9-9.5l-1.7-14.3h75.2L462.8,373.5z"/>
		<ellipse class="st5" cx="427" cy="359.2" rx="37.6" ry="10"/>
		<ellipse class="st4" cx="427" cy="359" rx="33.6" ry="7.5"/>
		<path class="st4" d="M394.9,361.2c4.3-3.1,17-5.3,32.1-5.3c15,0,27.8,2.2,32.1,5.3c1-0.7,1.5-1.5,1.5-2.3c0-4.2-15-7.5-33.6-7.5
			c-18.6,0-33.6,3.4-33.6,7.5C393.4,359.8,393.9,360.5,394.9,361.2z"/>
		<g>
			<path class="st5" d="M453.5,299.3c2.4-8.7-0.5-15.6-3.7-23.4c-3.2-7.8-3.7-16-2.5-24.2c1.6-11.1,5.3-21.8,1.1-32.6
				c-4-10.2-7.8-23.6-18.8-27.9c-10.7-4.6-18.8,6-18.6,15.7c0.2,9.7,5.7,18.5,2.9,28.1c-2.1,7.9-4.8,17.2-0.7,24.7
				c4.9,9.3,14,15.9,10.6,27.2c-1.3,4.1-3.6,7.5-4,11.6c-0.6,6.2,2.6,7.7,5.4,12.6c11.8,20.7-9.8,29-1.3,51.8c0.2,0.6,0.9,1.1,1.5,1
				l0,0c0.7,0,1.4-0.6,1.4-1.3c2.7-25.4,20.8-16.7,21-37.3c0-3.8-1.1-7.7-0.7-11.5C447.5,307.9,452,304.8,453.5,299.3z"/>
			<path class="st6" d="M429.4,307c0,0,1,11.6,9.5,13.1"/>
			<path class="st6" d="M421.3,250.7c0,0,0.6,13,11.5,16.5"/>
			<path class="st6" d="M445.5,233c0,0-0.5,13.5-11.1,15.6"/>
			<path class="st6" d="M445.2,275.3c0,0,2.6,14.8-6.1,18.6"/>
			<path class="st6" d="M443,325c0,0,0,13.5-13.6,14.8"/>
			<path class="st6" d="M426,214.2c0,0,1,13.6,9.1,15.9"/>
			<path class="st6" d="M427,204.8c9.3,9.2,8.6,30.2,7.9,39.8c-0.6,7-4.3,23.4,0,35.3c4.6,12.6,8.7,26,3.5,43.4
				c-3.6,12.1-15.5,18-13.1,40"/>
			<path class="st7" d="M447.6,324.1c0,0.4,0,0.8,0,1.2c-0.1,13.5-8,14.4-14.1,20.6c0.7-3.6,0.9-8.1,3.3-11c2.6-2.9,6.2-3.5,8.8-7.1
				C446.6,326.4,447.2,325.2,447.6,324.1z M449.7,275.9c-3.2-7.8-3.7-16-2.5-24.2c0.1-0.8,0.2-1.6,0.4-2.4c-4.2,1.6-7.5,4.7-9.5,9
				c-6,12.6-1.3,21.2,3.9,30.7c4.2,7.8,1.5,15,2.4,23.2c0.4,3.4,1.9,6.1,3,8.7c-0.3-2.4-0.6-4.8-0.4-7.1c0.5-5.9,5.1-8.9,6.5-14.4
				C455.9,290.6,452.9,283.7,449.7,275.9z M427.5,342c-0.8-1.8-1.8-3.7-2-5.7c-2.7,7-5.7,14.3-2.5,24.6c0,0,0,0.1,0,0.1
				c0.2,0.6,0.4,1.2,0.6,1.8c0,0.1,0.1,0.2,0.2,0.3c0,0,0,0,0,0.1c0.1,0.1,0.2,0.2,0.2,0.3c0,0,0,0,0,0c0.3,0.2,0.7,0.4,1.1,0.4h0
				c0.3,0,0.6-0.1,0.8-0.3c0.5-0.3,0.6-0.7,0.6-1c0,0,0-0.1,0-0.1c0.4-3.8,1.1-6.8,2.1-9.3c-0.6,0.4-1.1,0.7-1.7,1.1
				C428.9,350.1,430.2,347.7,427.5,342z"/>
		</g>
		<g>
			<path class="st8" d="M481.2,294.8c-5.3-9.7-5.3-16.1-4.7-26.5c0.6-10.6-2.6-24.7-15.6-27.1c-9.7-1.8-17.6,2.2-21.2,9.8
				c-6,12.6-1.3,21.2,3.9,30.7c4.2,7.8,1.5,15,2.4,23.2c0.9,8.2,8.2,12.1,2.1,20.6c-2.6,3.5-6.2,4.1-8.8,7.1
				c-2.6,3.2-2.6,8.3-3.5,12.1c-2.4,9.5-11.6,8.1-12,17.7c0,0.7,0.6,1.4,1.1,1.4s0.9,0.1,1.3-0.6c2.2-3.9,5.8-3.3,9.8-5.1
				c3-1.3,3.9-5,11.1-5.9c9.4-1.1,17.9,5,22.6-7.6c1.8-4.4,1.2-8.2,2.1-12.6c0.9-5.9,4.7-9.4,8.5-13.5
				C486.7,310.9,485.9,303.3,481.2,294.8z"/>
			<g>
				<path class="st6" d="M447.7,264.6c0,0,6.2,10.9,14.8,11.7"/>
				<path class="st6" d="M454.2,298.4c0,0-0.5,19.7,5.8,23.8"/>
				<path class="st6" d="M474.6,285.3c0,0-0.7,16.9-11.3,19.9"/>
				<path class="st6" d="M466,333.7c0,0-5.4,16.3-20.8,13.6"/>
				<path class="st6" d="M463.8,249.5c0,0,4.4,12.8-2.2,18.9"/>
				<path class="st6" d="M424.7,363c1.4-5.3,9.2-7.2,11.5-8.7c24.9-16.2,34.6-47.5,22.3-100.5"/>
			</g>
			<path class="st9" d="M423.5,362.5c0,0.7,0.6,1.4,1.1,1.4c0,0,0.1,0,0.1,0c1.6-1.2-0.4-2.9,2-8.5C425,357,423.7,359.1,423.5,362.5
				z"/>
		</g>
		<g>
			<path class="st8" d="M425.3,339.2c-2.9-6.3-0.2-14.3-3-18.9c-3.5-5.7-9.4-1.4-16.2-9.2c-5.7-6.6-1.6-15.7-14.6-22.6
				c-4-2.1-8.6-1.1-10.1,3.4c-1.9,4.2,1.1,10.3,2.5,14.3c1.3,3.4,2.9,6,2.3,9.8c0,0,0,0.1,0,0.1c-0.8,2.9-2.7,4.5-1.7,8
				c2.2,8.4,14.1,7.7,20.1,12.9c4.3,3.7,0.4,8.1,4.6,13.7c4.1,5.6,6.2-0.5,13.7,12.7c0.3,0.5,0.9,0.6,1.3,0.4l0,0
				c0.3-0.2,0.5-0.5,0.5-0.9C423.5,348.8,429.6,348.4,425.3,339.2z"/>
			<g>
				<path class="st6" d="M385.3,298.6c0,0,0.7,6.5,6.9,8.5"/>
				<path class="st6" d="M388.7,317c0,0,6.2,7.1,13.9,4.3"/>
				<path class="st6" d="M411.7,317.5c0,0,4.7,7.7,1.2,11.3"/>
				<path class="st6" d="M418.8,332c0,0,2.8,9.5-2,13"/>
				<path class="st6" d="M397,302.9c0,0,4,9.9,0.6,13.5"/>
				<path class="st6" d="M402.6,331.3c0,0,3.6,6,13.7,5.4"/>
				<path class="st6" d="M409.5,344.3c0,0,1,6.1,10.9,7.5"/>
				<path class="st6" d="M423.5,363.5c-0.4-13-7.3-14-7.1-21.7c0.2-6,0-11.7-7.3-16c-12.5-7.5-17.7-15.3-20.2-31.8"/>
			</g>
		</g>
	</g>
</g>
<g id="OBJECTS">
	<g>
		<ellipse class="st8" cx="168.1" cy="394.3" rx="38.6" ry="3.6"/>
		<g>
			<path class="st3" d="M393.7,344.4H85c-6,0-10.9-4.9-10.9-10.9V311h330.6v22.5C404.6,339.5,399.7,344.4,393.7,344.4z"/>
			<rect x="206.1" y="344.4" class="st4" width="67.8" height="29.2"/>
			<path class="st10" d="M404.6,311.6H74V128.5c0-5.6,4.5-10.1,10.1-10.1h310.4c5.6,0,10.1,4.5,10.1,10.1V311.6z"/>
			<rect x="87.5" y="132.3" class="st11" width="305.8" height="167.4"/>
			<circle class="st12" cx="239.3" cy="326.2" r="7.5"/>
			<path class="st12" d="M371.4,282.8H227.1c-1.7,0-3.1-1.4-3.1-3.1V150.6c0-1.7,1.4-3.1,3.1-3.1h144.3c1.7,0,3.1,1.4,3.1,3.1v129.1
				C374.5,281.4,373.1,282.8,371.4,282.8z"/>
			<path class="st3" d="M302.9,383.4H175.8l0,0c0-5.4,4.4-9.8,9.8-9.8h107.6C298.6,373.7,302.9,378,302.9,383.4L302.9,383.4z"/>
		</g>
		<g>
			<path class="st13" d="M118.2,93.5v-4.9c0-0.5-0.4-0.9-0.9-0.9H90.8c-0.5,0-0.9,0.4-0.9,0.9v5.8V297c0,0.5,0.4,0.9,0.9,0.9h122.6
				c0.5,0,0.9-0.4,0.9-0.9V95.4c0-0.5-0.4-0.9-0.9-0.9h-94.2C118.6,94.4,118.2,94,118.2,93.5z"/>
			
				<rect x="52.5" y="136.1" transform="matrix(-1.836970e-16 1 -1 -1.836970e-16 348.2381 44.0851)" class="st14" width="199.1" height="120.1"/>
			<g>
				<g>
					<g>
						<rect x="102.8" y="102.9" class="st15" width="9" height="1.3"/>
						<rect x="102.8" y="158" class="st15" width="9" height="1.3"/>
						<rect x="109.2" y="110.8" class="st15" width="9" height="1.3"/>
						<rect x="119.1" y="110.8" class="st16" width="9" height="1.3"/>
						<rect x="129" y="110.8" class="st16" width="22.2" height="1.3"/>
						<rect x="102.8" y="106.1" class="st17" width="9" height="1.3"/>
						<rect x="119.1" y="113.8" class="st17" width="14" height="1.3"/>
						<rect x="133.8" y="113.8" class="st17" width="33.1" height="1.3"/>
						<rect x="167.7" y="113.8" class="st17" width="10.6" height="1.3"/>
						<rect x="179" y="113.8" class="st17" width="12.5" height="1.3"/>
						<rect x="126.8" y="116.8" class="st17" width="27.6" height="1.3"/>
						<rect x="155.2" y="116.8" class="st17" width="36.2" height="1.3"/>
						<rect x="119.1" y="116.8" class="st17" width="6.6" height="1.3"/>
						<rect x="192.3" y="116.8" class="st15" width="9" height="1.3"/>
						<rect x="109.2" y="120.9" class="st15" width="9" height="1.3"/>
						<rect x="109.2" y="131.9" class="st15" width="9" height="1.3"/>
						<rect x="119.1" y="123.9" class="st15" width="9" height="1.3"/>
						<rect x="129" y="123.9" class="st16" width="22.2" height="1.3"/>
						<rect x="129" y="138.4" class="st16" width="5.8" height="1.3"/>
						<rect x="119.1" y="126.9" class="st17" width="14" height="1.3"/>
						<rect x="133.8" y="126.9" class="st17" width="33.1" height="1.3"/>
						<rect x="167.7" y="126.9" class="st17" width="10.6" height="1.3"/>
						<rect x="179" y="126.9" class="st17" width="12.5" height="1.3"/>
						<rect x="126.8" y="129.9" class="st17" width="27.6" height="1.3"/>
						<rect x="119.1" y="129.9" class="st17" width="6.6" height="1.3"/>
						<rect x="155.2" y="129.9" class="st15" width="9" height="1.3"/>
						<rect x="109.2" y="135.4" class="st15" width="9" height="1.3"/>
						<rect x="109.2" y="154.2" class="st15" width="9" height="1.3"/>
						<rect x="119.1" y="138.4" class="st15" width="9" height="1.3"/>
						<rect x="119.1" y="151.7" class="st15" width="9" height="1.3"/>
						<rect x="128.5" y="140.9" class="st15" width="3.7" height="1.3"/>
						<rect x="132.9" y="140.9" class="st17" width="5.5" height="1.3"/>
						<rect x="138.9" y="140.9" class="st17" width="6.1" height="1.3"/>
						<rect x="145.6" y="140.9" class="st17" width="4.6" height="1.3"/>
						<rect x="132.9" y="149.1" class="st17" width="5.5" height="1.3"/>
						<rect x="138.9" y="149.1" class="st17" width="6.1" height="1.3"/>
						<rect x="145.6" y="149.1" class="st17" width="4.6" height="1.3"/>
						<rect x="132.9" y="143.6" class="st17" width="5.5" height="1.3"/>
						<rect x="142.4" y="143.6" class="st17" width="7.8" height="1.3"/>
						<rect x="138.9" y="143.6" class="st17" width="3" height="1.3"/>
						<rect x="132.9" y="146.4" class="st17" width="2.2" height="1.3"/>
						<rect x="135.7" y="146.4" class="st17" width="2.8" height="1.3"/>
						<rect x="138.9" y="146.4" class="st17" width="11.2" height="1.3"/>
						<rect x="128.5" y="143.6" class="st15" width="3.7" height="1.3"/>
						<rect x="128.5" y="146.4" class="st15" width="3.7" height="1.3"/>
						<rect x="128.5" y="149.1" class="st15" width="3.7" height="1.3"/>
						<rect x="150.9" y="140.9" class="st15" width="3.7" height="1.3"/>
						<rect x="150.9" y="143.6" class="st15" width="3.7" height="1.3"/>
						<rect x="150.9" y="146.4" class="st15" width="3.7" height="1.3"/>
						<rect x="150.9" y="149.1" class="st15" width="3.7" height="1.3"/>
					</g>
					<g>
						<rect x="102.8" y="162.3" class="st15" width="9" height="1.3"/>
						<rect x="109.2" y="170.2" class="st15" width="9" height="1.3"/>
						<rect x="119.1" y="170.2" class="st16" width="9" height="1.3"/>
						<rect x="129" y="170.2" class="st16" width="22.2" height="1.3"/>
						<rect x="102.8" y="165.4" class="st17" width="9" height="1.3"/>
						<rect x="119.1" y="173.2" class="st17" width="14" height="1.3"/>
						<rect x="133.8" y="173.2" class="st17" width="33.1" height="1.3"/>
						<rect x="167.7" y="173.2" class="st17" width="10.6" height="1.3"/>
						<rect x="179" y="173.2" class="st17" width="12.5" height="1.3"/>
						<rect x="126.8" y="176.2" class="st17" width="27.6" height="1.3"/>
						<rect x="155.2" y="176.2" class="st17" width="36.2" height="1.3"/>
						<rect x="119.1" y="176.2" class="st17" width="6.6" height="1.3"/>
						<rect x="192.3" y="176.2" class="st15" width="9" height="1.3"/>
						<rect x="109.2" y="180.3" class="st15" width="9" height="1.3"/>
						<rect x="109.2" y="191.3" class="st15" width="9" height="1.3"/>
						<rect x="119.1" y="183.3" class="st15" width="9" height="1.3"/>
						<rect x="129" y="183.3" class="st16" width="22.2" height="1.3"/>
						<rect x="119.1" y="186.3" class="st17" width="14" height="1.3"/>
						<rect x="133.8" y="186.3" class="st17" width="33.1" height="1.3"/>
						<rect x="167.7" y="186.3" class="st17" width="10.6" height="1.3"/>
						<rect x="179" y="186.3" class="st17" width="12.5" height="1.3"/>
						<rect x="126.8" y="189.3" class="st17" width="27.6" height="1.3"/>
						<rect x="119.1" y="189.3" class="st17" width="6.6" height="1.3"/>
						<rect x="155.2" y="189.3" class="st15" width="9" height="1.3"/>
						<rect x="109.2" y="194.8" class="st15" width="9" height="1.3"/>
					</g>
				</g>
				<g>
					<g>
						<rect x="102.8" y="198.6" class="st15" width="9" height="1.3"/>
						<rect x="102.8" y="253.7" class="st15" width="9" height="1.3"/>
						<rect x="109.2" y="206.5" class="st15" width="9" height="1.3"/>
						<rect x="119.1" y="206.5" class="st16" width="9" height="1.3"/>
						<rect x="129" y="206.5" class="st16" width="22.2" height="1.3"/>
						<rect x="102.8" y="201.7" class="st17" width="9" height="1.3"/>
						<rect x="119.1" y="209.5" class="st17" width="14" height="1.3"/>
						<rect x="133.8" y="209.5" class="st17" width="33.1" height="1.3"/>
						<rect x="167.7" y="209.5" class="st17" width="10.6" height="1.3"/>
						<rect x="179" y="209.5" class="st17" width="12.5" height="1.3"/>
						<rect x="126.8" y="212.5" class="st17" width="27.6" height="1.3"/>
						<rect x="155.2" y="212.5" class="st17" width="36.2" height="1.3"/>
						<rect x="119.1" y="212.5" class="st17" width="6.6" height="1.3"/>
						<rect x="192.3" y="212.5" class="st15" width="9" height="1.3"/>
						<rect x="109.2" y="216.6" class="st15" width="9" height="1.3"/>
						<rect x="109.2" y="227.6" class="st15" width="9" height="1.3"/>
						<rect x="119.1" y="219.6" class="st15" width="9" height="1.3"/>
						<rect x="129" y="219.6" class="st16" width="22.2" height="1.3"/>
						<rect x="129" y="234" class="st16" width="5.8" height="1.3"/>
						<rect x="119.1" y="222.6" class="st17" width="14" height="1.3"/>
						<rect x="133.8" y="222.6" class="st17" width="33.1" height="1.3"/>
						<rect x="167.7" y="222.6" class="st17" width="10.6" height="1.3"/>
						<rect x="179" y="222.6" class="st17" width="12.5" height="1.3"/>
						<rect x="126.8" y="225.6" class="st17" width="27.6" height="1.3"/>
						<rect x="119.1" y="225.6" class="st17" width="6.6" height="1.3"/>
						<rect x="155.2" y="225.6" class="st15" width="9" height="1.3"/>
						<rect x="109.2" y="231.1" class="st15" width="9" height="1.3"/>
						<rect x="109.2" y="249.9" class="st15" width="9" height="1.3"/>
						<rect x="119.1" y="234" class="st15" width="9" height="1.3"/>
						<rect x="119.1" y="247.4" class="st15" width="9" height="1.3"/>
						<rect x="128.5" y="236.6" class="st15" width="3.7" height="1.3"/>
						<rect x="132.9" y="236.6" class="st17" width="5.5" height="1.3"/>
						<rect x="138.9" y="236.6" class="st17" width="6.1" height="1.3"/>
						<rect x="145.6" y="236.6" class="st17" width="4.6" height="1.3"/>
						<rect x="132.9" y="244.8" class="st17" width="5.5" height="1.3"/>
						<rect x="138.9" y="244.8" class="st17" width="6.1" height="1.3"/>
						<rect x="145.6" y="244.8" class="st17" width="4.6" height="1.3"/>
						<rect x="132.9" y="239.3" class="st17" width="5.5" height="1.3"/>
						<rect x="142.4" y="239.3" class="st17" width="7.8" height="1.3"/>
						<rect x="138.9" y="239.3" class="st17" width="3" height="1.3"/>
						<rect x="132.9" y="242" class="st17" width="2.2" height="1.3"/>
						<rect x="135.7" y="242" class="st17" width="2.8" height="1.3"/>
						<rect x="138.9" y="242" class="st17" width="11.2" height="1.3"/>
						<rect x="128.5" y="239.3" class="st15" width="3.7" height="1.3"/>
						<rect x="128.5" y="242" class="st15" width="3.7" height="1.3"/>
						<rect x="128.5" y="244.8" class="st15" width="3.7" height="1.3"/>
						<rect x="150.9" y="236.6" class="st15" width="3.7" height="1.3"/>
						<rect x="150.9" y="239.3" class="st15" width="3.7" height="1.3"/>
						<rect x="150.9" y="242" class="st15" width="3.7" height="1.3"/>
						<rect x="150.9" y="244.8" class="st15" width="3.7" height="1.3"/>
					</g>
					<g>
						<rect x="102.8" y="258" class="st15" width="9" height="1.3"/>
						<rect x="109.2" y="265.9" class="st15" width="9" height="1.3"/>
						<rect x="119.1" y="265.9" class="st16" width="9" height="1.3"/>
						<rect x="129" y="265.9" class="st16" width="22.2" height="1.3"/>
						<rect x="102.8" y="261.1" class="st17" width="9" height="1.3"/>
						<rect x="119.1" y="268.9" class="st17" width="14" height="1.3"/>
						<rect x="133.8" y="268.9" class="st17" width="33.1" height="1.3"/>
						<rect x="167.7" y="268.9" class="st17" width="10.6" height="1.3"/>
						<rect x="179" y="268.9" class="st17" width="12.5" height="1.3"/>
						<rect x="126.8" y="271.8" class="st17" width="27.6" height="1.3"/>
						<rect x="155.2" y="271.8" class="st17" width="36.2" height="1.3"/>
						<rect x="119.1" y="271.8" class="st17" width="6.6" height="1.3"/>
						<rect x="192.3" y="271.8" class="st15" width="9" height="1.3"/>
						<rect x="109.2" y="276" class="st15" width="9" height="1.3"/>
						<rect x="109.2" y="287" class="st15" width="9" height="1.3"/>
						<rect x="119.1" y="279" class="st15" width="9" height="1.3"/>
						<rect x="129" y="279" class="st16" width="22.2" height="1.3"/>
						<rect x="119.1" y="282" class="st17" width="14" height="1.3"/>
						<rect x="133.8" y="282" class="st17" width="33.1" height="1.3"/>
						<rect x="167.7" y="282" class="st17" width="10.6" height="1.3"/>
						<rect x="179" y="282" class="st17" width="12.5" height="1.3"/>
						<rect x="126.8" y="284.9" class="st17" width="27.6" height="1.3"/>
						<rect x="119.1" y="284.9" class="st17" width="6.6" height="1.3"/>
						<rect x="155.2" y="284.9" class="st15" width="9" height="1.3"/>
						<rect x="109.2" y="290.4" class="st15" width="9" height="1.3"/>
					</g>
				</g>
			</g>
			<g>
				<circle class="st15" cx="94.3" cy="92.1" r="1"/>
				<circle class="st18" cx="98.1" cy="92.1" r="1"/>
				<circle class="st19" cx="101.8" cy="92.1" r="1"/>
			</g>
		</g>
		<path class="st20" d="M317,113.4c-1.1-0.9-2.5-1-3.4-1c0-0.7,0-1.1,0-1.1h-18.7c0,0-0.6,12.4,8.9,12.8c4.2,0.2,6.7-1.7,8.1-4.1
			c0.5,0.1,1.2,0.3,2.1,0.3c1,0,2.1-0.2,3-0.8c0.6-0.5,1.4-1.4,1.4-3.2C318.2,114.8,317.6,113.9,317,113.4z M315.7,118
			c-0.8,0.6-2.2,0.5-3.2,0.3c0.5-1.4,0.8-2.9,0.9-4.1c0.6,0,1.7,0,2.3,0.5c0.4,0.3,0.6,0.8,0.6,1.5
			C316.4,117.1,316.2,117.7,315.7,118z"/>
		<g class="st21">
			<path class="st22" d="M364.5,125.3c0,0,11.2,3.8,12.5,3.3c1.2-0.5,0.3-4.8-11.2-7.4L364.5,125.3z"/>
			<path class="st22" d="M315,121.7c0,0-11.4,3.2-12.1,4.3c-0.8,1.1,2.4,4.1,13.4-0.2L315,121.7z"/>
			<path class="st22" d="M331.1,71.5c0,0-3.7,21.8-10.8,22.1c-7.1,0.2-17.1-13.4-17.1-13.4l5.8-6.4c0,0,6.8,8.4,9,7.6
				c2.2-0.8,4.2-12.6,4.2-12.6L331.1,71.5z"/>
			<polygon class="st23" points="365.5,98 356.6,98 323.6,98.8 311.4,97.2 337.8,106.9 			"/>
			<path class="st24" d="M308.8,111.2l59.7,16.2l3.7-12c0,0-57.9-19.1-60.7-18.2C308.6,98.2,302.5,104.8,308.8,111.2z"/>
			<path class="st25" d="M364.6,74.4c0,0,0.6-18.8-16.9-18.8l-5.9,0.1c0,0-20.7-2.5-21,17.7L364.6,74.4z"/>
			<path class="st25" d="M355.4,70.3c0,0-0.4,20.3,0.3,23.2c0.7,3,3.9,4.6,2.4,5.5c-1.5,0.8-33.8,0.2-34.5-0.2
				c-0.7-0.4,0.1-2.5,0.5-2.8c3.6-2.6,5.9-16.7,6.9-24.7L355.4,70.3z"/>
			<path class="st23" d="M365.5,98l-59.3,19.2l3.8,10.7c0,0,60.9-13.3,62.5-15.8C374.2,109.5,377,97.8,365.5,98z"/>
			<path class="st22" d="M364.6,74.4c0,0,2.3,22-4.4,24.2c-6.7,2.2-20-8.1-20-8.1l3.8-7.8c0,0,8.9,6.2,10.8,4.8
				c1.9-1.4,0.6-13.3,0.6-13.3L364.6,74.4z"/>
			<path class="st22" d="M311.5,79.8l-0.4-2.2c0,0-0.4-1.3-0.7-3.6c-0.1-0.6,0-1.2,0.1-1.8c0.2-0.7,0.4-1.7,0.7-2.1
				c0.4-0.6-0.1-1.3-0.7-1.1c-0.6,0.2-1.7,1.8-2,4c-0.3,2.2-2.1-0.8-2.8-1.9c-0.7-1.1-2.9-4.4-3.4-4.5c-0.7-0.1-1,0.7-0.3,1.8
				c0.7,1.1,2.6,4.5,2,4.8c-0.6,0.3-3.9-5.3-3.9-5.3s-0.5-1.3-1.2-1c-1.3,0.6,2.8,6.4,3.1,6.9c0.3,0.4-0.4,0.8-0.6,0.3
				c-0.3-0.4-3.2-5.7-4.5-5.1c-1,0.5,3.3,4.7,3.3,6.2c0,1.4-2.9-3.5-3.8-3c-0.3,0.2-0.6,0.4,1.5,3c2.1,2.7,9.1,9,9.1,9l4.6-4.6"/>
			<g class="st26">
				<ellipse class="st27" cx="334.9" cy="73.5" rx="1.3" ry="0.2"/>
			</g>
			<g class="st26">
				
					<ellipse transform="matrix(3.298094e-02 -0.9995 0.9995 3.298094e-02 249.3125 406.8509)" class="st27" cx="334.9" cy="74.6" rx="0.2" ry="1"/>
			</g>
			<path class="st22" d="M362.3,64.1l-39-0.1c0,0,2.5-8.8,16-8.3C352.8,56.1,355.7,53.3,362.3,64.1z"/>
			<g class="st26">
				<path class="st28" d="M332.3,35.3c0.1-0.4,3.8,0,3.8,0l1.6,21.3c-2.6,1.4-6.1,3.3-9,3c-0.5-2.1-1-4.4,0.1-6.2
					c0.5-0.9,1.4-1.6,1.8-2.5c0.5-1.2,0.3-2.6,0-4c-0.2-1.1-0.4-2.2-0.3-3.3C330.7,40.9,333.1,38.1,332.3,35.3"/>
				<path class="st29" d="M337.4,56.9c0.2-1.1-0.2-5.5-0.2-5.5s-4.1-0.4-4.3-4.5c-0.2-4.1,0-13.4,0-13.4l7.4-3.6l8.1,6.2l-1.2,20.3
					L337.4,56.9z"/>
				<path class="st28" d="M347.8,39.2c0,0-6.6-0.6-7.8-6.7l-7.2,6.7c0,0-2.2-4.5,1.8-8.7c4-4.2,6.7-3.3,8.3-3.3c1.5,0,8.8,1.6,11,10
					c0.2,0.6,0.3,2.1,0.4,2.8L347.8,39.2z"/>
				<g>
					<ellipse class="st27" cx="334.2" cy="40.3" rx="0.5" ry="0.5"/>
					<g>
						<path class="st27" d="M333.2,39.8c0.1,0.1,0.4-0.3,1-0.3c0.6,0,1,0.2,1,0.2c0,0,0-0.2-0.2-0.3c-0.2-0.1-0.5-0.2-0.8-0.2
							c-0.3,0-0.6,0.2-0.8,0.3C333.2,39.6,333.1,39.7,333.2,39.8z"/>
					</g>
				</g>
				<g>
					<ellipse class="st27" cx="340.2" cy="40.3" rx="0.5" ry="0.5"/>
					<g>
						<path class="st27" d="M339.3,39.8c0.1,0.1,0.4-0.3,1-0.3c0.6,0,1,0.2,1,0.2c0,0,0-0.2-0.2-0.3c-0.2-0.1-0.5-0.2-0.8-0.2
							c-0.3,0-0.6,0.2-0.8,0.3C339.3,39.6,339.3,39.7,339.3,39.8z"/>
					</g>
				</g>
				<g>
					<path class="st27" d="M337.3,44.5c0,0-0.3-0.1-0.9-0.1c-0.1,0-0.3,0-0.3-0.1c0-0.1,0-0.3,0.1-0.5c0.1-0.4,0.2-0.8,0.4-1.2
						c0.3-0.8,0.5-1.6,0.6-2.1c0.2-0.5,0.2-0.9,0.2-0.9c0,0-0.2,0.3-0.3,0.9c-0.2,0.5-0.4,1.3-0.7,2.1c-0.1,0.4-0.3,0.8-0.4,1.2
						c0,0.2-0.1,0.4-0.1,0.6c0,0.1,0.1,0.2,0.2,0.2c0.1,0,0.2,0,0.2,0C337,44.5,337.3,44.5,337.3,44.5z"/>
				</g>
				<g class="st30">
					<path class="st31" d="M340,44.8c0,0.5,0.7,0.8,1.6,0.8c0.9,0,1.6-0.3,1.6-0.7c0-0.5-0.7-0.9-1.6-0.9
						C340.7,43.9,340,44.3,340,44.8z"/>
				</g>
				<path class="st32" d="M339.2,45c0.6-0.4-1.6,0.9-2.7,0.9c0,0,0.7,1,1.8,0.5C339.5,46,339.2,45,339.2,45z"/>
				<path class="st31" d="M337.2,51.4c0,0,2.7,0,5.3-1.8c0,0-1.2,3-5.2,2.8L337.2,51.4z"/>
				<path class="st28" d="M340.2,32c0,0-1.5,2.9-0.8,5l-6.5,1.7C332.9,38.7,331.4,30.5,340.2,32z"/>
				<path class="st28" d="M354.1,39.5c0.7,5.2,1.1,10.5,1.1,15.8c-2.7,1-5.7,1.5-8.6,1.5c-0.5,0-1,0-1.4-0.3c-0.8-0.4-1-1.4-1-2.3
					c0.1-2.1,1.1-4,1.3-6.1c0.2-2.1-0.6-4.2-1.2-6.2c-0.6-2-1-4.2-0.3-6.2L354.1,39.5z"/>
			</g>
			<g class="st26">
				<path class="st20" d="M352.8,56.1c0,0-0.1-0.5-0.4-1.3c-0.2-0.8-0.6-2-0.4-3.5c0.1-0.7,0.3-1.5,0.5-2.4c0.2-0.9,0.5-1.8,0.5-2.8
					c0-0.5-0.1-1-0.3-1.6c-0.2-0.5-0.5-1-0.8-1.4c-0.7-0.9-1.6-1.5-2.3-2.4c-0.3-0.4-0.6-0.9-0.7-1.4c-0.1-0.5,0-1.1,0.1-1.6
					c0.1-0.5,0.2-1.1,0.2-1.6c0-0.5-0.1-1.1-0.3-1.6c-0.4-1-1.1-1.7-1.8-2.2c-0.7-0.6-1.4-1-2-1.4c-1.2-0.8-2.1-1.7-2.5-2.4
					c-0.4-0.7-0.4-1.2-0.4-1.2c0,0,0,0.1,0,0.3c0,0.2,0.1,0.6,0.3,0.9c0.4,0.8,1.2,1.7,2.5,2.6c0.6,0.4,1.3,0.9,2,1.4
					c0.7,0.6,1.3,1.2,1.7,2.1c0.2,0.4,0.3,0.9,0.2,1.4c0,0.5-0.1,1-0.2,1.6c-0.1,0.5-0.2,1.1-0.1,1.7c0.1,0.6,0.4,1.1,0.7,1.6
					c0.7,0.9,1.6,1.6,2.3,2.4c0.3,0.4,0.6,0.8,0.8,1.3c0.2,0.5,0.2,1,0.3,1.4c0,1-0.2,1.9-0.4,2.7c-0.2,0.9-0.4,1.7-0.5,2.4
					c-0.1,0.8,0,1.5,0.1,2.1c0.1,0.6,0.3,1.1,0.4,1.5c0.1,0.4,0.3,0.7,0.4,0.9C352.7,56,352.8,56.1,352.8,56.1z"/>
			</g>
			<g class="st26">
				<path class="st20" d="M340.7,27.4c0,0-0.1,0.1-0.1,0.3c-0.1,0.2-0.2,0.5-0.2,0.9c-0.1,0.4-0.2,0.9-0.1,1.5
					c0,0.6,0.3,1.3,0.9,1.9c0.5,0.6,1.3,1,2,1.5c0.4,0.2,0.7,0.5,1,0.8c0.3,0.3,0.5,0.7,0.6,1.2c0.2,0.9,0.1,2,0,3
					c0,0.5,0,1.1,0.1,1.7c0.1,0.6,0.4,1.1,0.7,1.6c0.6,1,1.4,1.8,1.9,2.7c0.5,0.9,0.7,1.9,0.6,2.9c0,1-0.2,1.9-0.4,2.8
					c-0.2,0.9-0.3,1.7-0.4,2.4c-0.1,1.5,0.3,2.8,0.7,3.5c0.2,0.4,0.5,0.6,0.6,0.7c0.2,0.1,0.3,0.2,0.3,0.2c0,0-0.4-0.3-0.8-1
					c-0.4-0.7-0.8-1.9-0.6-3.4c0.1-0.7,0.2-1.5,0.4-2.4c0.2-0.9,0.4-1.8,0.4-2.8c0-1-0.1-2.1-0.6-3.1c-0.5-1-1.3-1.8-1.9-2.7
					c-0.3-0.5-0.6-1-0.7-1.5c-0.1-0.5-0.1-1.1-0.1-1.6c0-1.1,0.2-2.1-0.1-3.2c-0.1-0.5-0.4-1-0.7-1.3c-0.3-0.4-0.7-0.6-1.1-0.9
					c-0.7-0.5-1.5-0.9-2-1.4c-0.5-0.5-0.8-1.1-0.8-1.7c-0.1-0.6,0-1.1,0-1.5C340.6,27.8,340.7,27.4,340.7,27.4z"/>
			</g>
			<g class="st26">
				<path class="st20" d="M337,37.5c0.1,0-0.4-0.6-0.6-1.6c-0.2-1-0.2-2.5,0.4-3.9c0.6-1.4,1.6-2.6,2.2-3.4c0.7-0.8,1.1-1.3,1.1-1.3
					c0,0-0.5,0.4-1.3,1.1c-0.7,0.8-1.7,1.9-2.4,3.4c-0.7,1.5-0.7,3.1-0.3,4.1c0.2,0.5,0.4,0.9,0.5,1.1C336.8,37.4,337,37.5,337,37.5
					z"/>
			</g>
			<g class="st26">
				<path class="st20" d="M333.2,38.4c0.1,0-0.4-0.8-0.4-2.1c0-0.7,0.1-1.4,0.4-2.3c0.3-0.8,0.8-1.6,1.4-2.4c0.6-0.8,1.3-1.4,2-2
					c0.7-0.5,1.3-1,1.9-1.4c1.1-0.7,1.9-0.8,1.9-0.9c0,0-0.2,0-0.6,0c-0.4,0.1-0.9,0.3-1.5,0.6c-0.6,0.3-1.2,0.8-2,1.3
					c-0.7,0.5-1.4,1.2-2.1,2c-0.7,0.8-1.2,1.7-1.4,2.6c-0.3,0.9-0.4,1.7-0.3,2.4c0.1,0.7,0.2,1.2,0.4,1.6
					C333,38.2,333.2,38.4,333.2,38.4z"/>
			</g>
			<g class="st26">
				<path class="st20" d="M332.1,58.4c0,0-0.2-0.2-0.5-0.5c-0.3-0.4-0.5-1-0.5-1.8c0-0.4,0.1-0.9,0.2-1.3c0.1-0.5,0.4-0.9,0.6-1.4
					c0.2-0.5,0.5-1,0.7-1.6c0.2-0.6,0.3-1.2,0.3-1.9c0-1.3-0.4-2.5-0.6-3.6c-0.3-1.1-0.4-2-0.4-2.9c0-0.8,0.2-1.5,0.4-1.9
					c0.2-0.4,0.4-0.6,0.3-0.6c0,0-0.2,0.2-0.5,0.6c-0.2,0.4-0.5,1.1-0.5,1.9c-0.1,0.9,0.1,1.9,0.4,3c0.3,1.1,0.6,2.3,0.6,3.5
					c0,1.3-0.5,2.3-1,3.4c-0.2,0.5-0.4,1-0.6,1.5c-0.1,0.5-0.2,1-0.2,1.4c0,0.9,0.3,1.5,0.7,1.9C331.8,58.3,332.1,58.4,332.1,58.4z"
					/>
			</g>
			<g class="st26">
				<path class="st20" d="M355.3,55.1c0,0-0.1-0.1-0.2-0.3c-0.1-0.2-0.2-0.5-0.2-1c0-0.4,0.1-1,0.4-1.5c0.3-0.6,0.7-1.2,1.1-1.9
					c0.4-0.7,0.7-1.6,0.9-2.5c0.2-1,0.2-2-0.2-3.1c-0.2-0.5-0.4-1.1-0.7-1.5c-0.3-0.5-0.7-0.9-1.2-1.3c-0.4-0.4-0.9-0.8-1.3-1.2
					c-0.4-0.4-0.7-1-0.8-1.5c-0.3-1.2-0.3-2.4-0.3-3.6c0-1.2-0.2-2.4-0.8-3.3c-0.6-1-1.5-1.6-2.3-2c-0.9-0.5-1.7-0.7-2.5-1
					c-1.6-0.5-2.8-0.8-3.6-1.3c-0.8-0.4-1.2-0.7-1.2-0.7c0,0,0.1,0.1,0.3,0.2c0.2,0.1,0.5,0.4,0.9,0.6c0.8,0.5,2.1,0.9,3.6,1.4
					c0.8,0.3,1.6,0.6,2.4,1c0.8,0.5,1.6,1.1,2.2,1.9c0.6,0.9,0.7,2,0.8,3.2c0.1,1.2,0,2.4,0.3,3.6c0.2,0.6,0.5,1.2,0.9,1.7
					c0.4,0.5,0.9,0.8,1.3,1.2c0.4,0.4,0.8,0.8,1.1,1.2c0.3,0.5,0.5,0.9,0.7,1.4c0.3,1,0.3,2,0.2,2.9c-0.1,0.9-0.5,1.8-0.8,2.5
					c-0.4,0.7-0.8,1.3-1,1.9c-0.3,0.6-0.4,1.2-0.4,1.6c0,0.5,0.1,0.8,0.3,1C355.2,55,355.3,55.1,355.3,55.1z"/>
			</g>
			
				<linearGradient id="SVGID_1_" gradientUnits="userSpaceOnUse" x1="218.5005" y1="99.0482" x2="217.4441" y2="55.7354" gradientTransform="matrix(-0.9935 0 0 1 556.8912 -1.116263e-05)">
				<stop  offset="0" style="stop-color:#FFFFFF"/>
				<stop  offset="0.2316" style="stop-color:#FFFFFF;stop-opacity:0.7684"/>
				<stop  offset="1" style="stop-color:#FFFFFF;stop-opacity:0"/>
			</linearGradient>
			<polygon class="st33" points="358.5,79.1 365.5,51 316.4,49.6 323.6,81.1 			"/>
			<g class="st26">
				<path class="st34" d="M358.3,79.5l-4.6,22.6c0,0-27.4-0.8-27.7-0.9c-0.3-0.1-2.9-21.8-2.9-21.8H358.3z"/>
				<ellipse class="st32" cx="339.8" cy="90.1" rx="1.6" ry="2"/>
			</g>
			<g class="st26">
				<path class="st35" d="M316.2,114c0,0,0.1,0,0.3-0.1c0.2-0.1,0.6-0.1,1-0.2c0.8-0.2,2.1-0.5,3.6-1c3-0.8,7.1-2.1,11.6-3.5
					c4.5-1.5,8.6-2.9,11.5-4c1.5-0.6,2.6-1,3.4-1.3c0.4-0.2,0.7-0.3,0.9-0.4c0.2-0.1,0.3-0.1,0.3-0.2c0,0-0.1,0-0.3,0.1
					c-0.2,0.1-0.5,0.2-0.9,0.3c-0.8,0.3-2,0.7-3.5,1.2c-2.9,1-7,2.4-11.5,3.9c-4.5,1.5-8.6,2.7-11.6,3.6c-1.5,0.5-2.7,0.8-3.5,1.1
					c-0.4,0.1-0.7,0.2-1,0.3C316.3,114,316.2,114,316.2,114z"/>
			</g>
			<g class="st26">
				
					<ellipse transform="matrix(0.2885 -0.9575 0.9575 0.2885 139.457 394.9956)" class="st35" cx="335.5" cy="103.7" rx="0.2" ry="6.7"/>
			</g>
			<g class="st26">
				<path class="st35" d="M350.3,103.1c0,0,0.3,0,0.8-0.1c0.5-0.1,1.2-0.3,2-0.6c1.7-0.5,4-1.3,6.6-2c2.6-0.7,5-0.9,6.8-0.8
					c1.8,0.1,2.8,0.4,2.8,0.4c0,0-0.2-0.1-0.7-0.3c-0.5-0.1-1.2-0.3-2.1-0.4c-1.8-0.2-4.3-0.1-6.9,0.7c-2.6,0.7-4.9,1.6-6.6,2.2
					c-0.8,0.3-1.5,0.5-2,0.7C350.5,102.9,350.3,103,350.3,103.1z"/>
			</g>
			<polygon class="st36" points="367.6,114 348.5,122 342.7,120.4 			"/>
			<polygon class="st36" points="351.7,102 340.9,104.6 326.5,101.2 			"/>
		</g>
	</g>
	<g>
		<rect x="224.3" y="146.7" class="st37" width="150" height="107.7"/>
		<path class="st38" d="M257,181.3h-14.6c-2.2,0-3.9,1.8-3.9,3.9v0c0,2.2,1.8,3.9,3.9,3.9H257c2.2,0,3.9-1.8,3.9-3.9v0
			C260.9,183,259.2,181.3,257,181.3z"/>
		<g>
			<rect x="236.7" y="207.2" class="st39" width="31.9" height="36.3"/>
			<circle class="st37" cx="252.7" cy="220.8" r="8.3"/>
		</g>
		<g>
			<rect x="283.3" y="207.2" class="st39" width="31.9" height="36.3"/>
			<circle class="st37" cx="299.3" cy="220.8" r="8.3"/>
		</g>
		<g>
			<rect x="329.9" y="207.2" class="st39" width="31.9" height="36.3"/>
			<circle class="st37" cx="345.9" cy="220.8" r="8.3"/>
		</g>
		<rect x="238.4" y="158.1" class="st39" width="57.8" height="4.6"/>
		<rect x="238.4" y="168.1" class="st39" width="39.1" height="4.6"/>
		<rect x="312.6" y="156.8" class="st37" width="49.5" height="32.6"/>
		<rect x="244.6" y="184.3" class="st37" width="10.3" height="1.9"/>
		<circle class="st38" cx="335.8" cy="170.5" r="7.8"/>
		<polygon class="st39" points="326.9,164.6 312.6,189.4 340.7,189.4 		"/>
		<polygon class="st39" points="348.3,171.9 333.9,189.4 362.1,189.4 		"/>
	</g>
	<g>
		<g>
			<path class="st40" d="M373.2,67.5l-8.4,3.4c1,9.1-16.8,27.7-16.8,27.7l4.7,0.3C352.8,99,383.2,79.7,373.2,67.5z"/>
			<ellipse class="st38" cx="374.1" cy="12.5" rx="6.6" ry="7.8"/>
			
				<ellipse transform="matrix(0.3236 -0.9462 0.9462 0.3236 233.5385 365.4386)" class="st41" cx="372.4" cy="19.4" rx="4.3" ry="5.1"/>
			<path class="st38" d="M393.4,111.3l-39.8-6.2c5.4-12,15.6-12,10.2-36.6c-4.1-18.6,12.6-24,19.4-17.9c0.8,0.7,1.6,1.6,2.4,2.7
				c0,0,0,0.1,0.1,0.1c4.4,5.8,8.3,16.4,7.8,31c-0.2,4.5-0.1,7.7,0.1,10.4C393.8,100.5,394.3,103.8,393.4,111.3z"/>
			<path class="st42" d="M392.4,118.2c0.6-1.6,1.7-4.7,1.4-10l-40.1-3.1c-0.3,0.8-0.5,1.6-0.7,2.4c-5.4,0.1-10.6,0.5-14.2,1.6
				c-19.8,6.1-23.1,40-23.1,40l3.6,1.4c0,0,5.7-16.7,15-24.1c-0.1,13.3,16.1,34.6,16.1,34.6l4.4-1.1c0,0-15.3-27.5-2.5-30.7
				c9.1-2.3,13.2-2.6,21.2-2.5c3.7,0.4,7.5,0.5,11.4,0.1C389,125.9,391.2,121.1,392.4,118.2z"/>
			<path class="st40" d="M393.6,94.9c-7.2,7-18.7,11.9-18.7,11.9l-6.4-3.1c0,0,25.4-6.9,21.1-17.5c-3.6-8.8-8.9-22.2-10.1-25.8
				c-1-2.9-0.7-14.3,5.7-7.5c0.1,0.1,0.3,0.3,0.4,0.5c0,0,0,0.1,0.1,0.1c4.4,5.8,8.3,16.4,7.8,31C393.3,88.9,393.4,92.2,393.6,94.9z
				"/>
			<path class="st38" d="M385.2,52.9c4.6,4.3,9.7,19.4,13.2,26.9C405,94,373,105.1,373,105.1l-4.5-1.5c0,0,26.2-12.5,20.9-22.6
				c-4.2-8.1-7.1-12.4-12-22.1C374.4,52.9,377,45.1,385.2,52.9z"/>
			<path class="st43" d="M369.9,103.3c-2.8-1.2-6.1,0.1-6.6,1.8c-0.5,1.7,1.3,2.6,6.2,3c4.8,0.5,5.4-2.7,5.4-2.7L369.9,103.3z"/>
			<path class="st43" d="M351,157.5l-6.1,7.2c-0.7,0.8,0.2,1.8,1.2,1.5l9.1-3.6c0.8-0.3,1.1-1.2,0.6-1.9l-2.3-3
				C353,156.8,351.7,156.7,351,157.5z"/>
			<path class="st43" d="M318.7,147.9l-11.1-5.4c-1-0.4-1.7,0.9-1,1.7l8.7,9.4c0.6,0.7,1.6,0.6,2-0.1l2.1-3.2
				C320.1,149.5,319.7,148.2,318.7,147.9z"/>
			<path class="st44" d="M375.2,33.1c1.2,6.1,1.7,12.8,4.2,17.5c0.6,1.2,0.5,2.5-0.5,3.2c-1.5,1-4.2,1.9-7.8,0
				c-1.3-0.7-2-2.1-1.8-3.3c0.6-2.7,1.3-7.7,0.5-11.9C368.6,32.6,374.3,28.2,375.2,33.1z"/>
			<path class="st43" d="M360.8,40c5.7,11,11.5,12.1,15.4-4.8S350,19.2,360.8,40z"/>
			<path class="st38" d="M370.8,17.8c-2.7,0-5.1,1.4-6.7,3.7c-1.8,0.7-3.7,1.7-5.6,3c-4.3,3.1-11,14.6-9.6,14.9
				c4.9,1.2,12.3,0.5,18-2.1c1.2,0.7,2.5,1.1,3.9,1.1c4.8,0,8.8-4.6,8.8-10.3S375.6,17.8,370.8,17.8z"/>
			<path class="st43" d="M373.7,36.1c-0.8,3,0.3,4,4.4,1.1C382.3,34.4,375.3,30.4,373.7,36.1z"/>
		</g>
		<path class="st45" d="M378.4,110.3h-30.8c-0.6,0-1-0.5-1-1v-0.5c0-0.6,0.5-1,1-1h30.8c0.6,0,1,0.5,1,1v0.5
			C379.4,109.9,379,110.3,378.4,110.3z"/>
		<path class="st46" d="M365.1,110.3h-27.6c-1.5,0-2.9-1.2-3.2-2.6l-4.4-20.6c-0.3-1.5,0.6-2.6,2.1-2.6h27.6c1.5,0,2.9,1.2,3.2,2.6
			l4.4,20.6C367.5,109.2,366.5,110.3,365.1,110.3z"/>
	</g>
	<text transform="matrix(0.9816 0.1909 -0.1909 0.9816 252.7168 83.2625)" class="st2 st47 st48">HTML</text>
	<text transform="matrix(0.9452 -0.3266 0.3266 0.9452 58.0037 49.6288)" class="st2 st47 st48">CSS</text>
</g>
</svg>
