<?xml version="1.0" encoding="utf-8"?>
<!-- Generator: Adobe Illustrator 21.0.0, SVG Export Plug-In . SVG Version: 6.00 Build 0)  -->
<svg version="1.1" id="Слой_1" xmlns="http://www.w3.org/2000/svg" xmlns:xlink="http://www.w3.org/1999/xlink" x="0px" y="0px"
	 viewBox="0 0 244.2 237.7" style="enable-background:new 0 0 244.2 237.7;" xml:space="preserve">
<style type="text/css">
	.st0{fill:#B1CEFF;}
	.st1{opacity:0.34;fill:#C8DBFB;enable-background:new    ;}
</style>
<title>Ресурс 1</title>
<g>
	<g id="Слой_2">
		<g id="OBJECTS">
			<g id="Слой_4">
				<path class="st0" d="M140.2,3.3c61.4,17,35.2,78.3,77.8,106.8s37,87-44.8,111.3c-72.3,21.5-148.3,8.5-166-81.9
					C-10.8,47.9,72.8-15.4,140.2,3.3z"/>
				<path class="st1" d="M5.7,95.9C28,36.3,86.8,67.7,119,27.8s89.9-29.3,107,54.3c15,73.9-3.9,145.1-95.4,154.8
					C37.7,246.8-18.8,161.5,5.7,95.9z"/>
				<path class="st0" d="M184.9,14.6c2.8-6.4,13.7-6.6,22.2-2.9c10.6,4.6,16.6,14.3,11.5,19.8c-5.2,5.6-11.8-1.7-23.1-2.3
					C189.2,28.9,181.1,23.2,184.9,14.6z"/>
			</g>
		</g>
	</g>
</g>
</svg>
